<?xml version="1.0" encoding="utf-8" ?>
<svg baseProfile="full" height="100%" version="1.1" width="100%" xmlns="http://www.w3.org/2000/svg" xmlns:ev="http://www.w3.org/2001/xml-events" xmlns:xlink="http://www.w3.org/1999/xlink"><defs /><rect fill="rgb(0,0,5)" height="100%" width="100%" x="0" y="0" /><g id="vline" stroke="blue" stroke-width="5"><line x1="8cm" x2="12.242640687119284cm" y1="0cm" y2="4.242640687119284cm" /><line x1="12.242640687119284cm" x2="12.242640687119284cm" y1="4.242640687119284cm" y2="9.242640687119284cm" /><line x1="12.242640687119284cm" x2="17.192388155425117cm" y1="9.242640687119284cm" y2="14.192388155425117cm" /><line x1="17.192388155425117cm" x2="17.192388155425117cm" y1="14.192388155425117cm" y2="19.192388155425117cm" /><line x1="17.192388155425117cm" x2="10.121320343559642cm" y1="19.192388155425117cm" y2="26.263455967290593cm" /><line x1="10.121320343559642cm" x2="10.121320343559642cm" y1="26.263455967290593cm" y2="28.263455967290593cm" /><line x1="10.121320343559642cm" x2="8.0cm" y1="28.263455967290593cm" y2="30.384776310850235cm" /><line x1="8.0cm" x2="8.0cm" y1="30.384776310850235cm" y2="35.384776310850235cm" /><line x1="8.0cm" x2="9.414213562373096cm" y1="35.384776310850235cm" y2="36.798989873223334cm" /><line x1="9.414213562373096cm" x2="9.414213562373096cm" y1="36.798989873223334cm" y2="40.798989873223334cm" /><line x1="9.414213562373096cm" x2="11.535533905932738cm" y1="40.798989873223334cm" y2="42.92031021678298cm" /><line x1="11.535533905932738cm" x2="11.535533905932738cm" y1="42.92031021678298cm" y2="47.92031021678298cm" /><line x1="11.535533905932738cm" x2="6.585786437626905cm" y1="47.92031021678298cm" y2="52.87005768508881cm" /><line x1="6.585786437626905cm" x2="6.585786437626905cm" y1="52.87005768508881cm" y2="54.87005768508881cm" /><line x1="6.585786437626905cm" x2="3.757359312880715cm" y1="54.87005768508881cm" y2="57.698484809835cm" /><line x1="3.757359312880715cm" x2="3.757359312880715cm" y1="57.698484809835cm" y2="61.698484809835cm" /><line x1="3.757359312880715cm" x2="8.707106781186548cm" y1="61.698484809835cm" y2="66.64823227814084cm" /><line x1="8.707106781186548cm" x2="8.707106781186548cm" y1="66.64823227814084cm" y2="69.64823227814084cm" /><line x1="8.707106781186548cm" x2="10.82842712474619cm" y1="69.64823227814084cm" y2="71.76955262170048cm" /><line x1="10.82842712474619cm" x2="10.82842712474619cm" y1="71.76955262170048cm" y2="73.76955262170048cm" /><line x1="10.82842712474619cm" x2="17.899494936611667cm" y1="73.76955262170048cm" y2="80.84062043356596cm" /><line x1="17.899494936611667cm" x2="17.899494936611667cm" y1="80.84062043356596cm" y2="83.84062043356596cm" /><line x1="17.899494936611667cm" x2="16.48528137423857cm" y1="83.84062043356596cm" y2="85.25483399593905cm" /><line x1="16.48528137423857cm" x2="16.48528137423857cm" y1="85.25483399593905cm" y2="87.25483399593905cm" /><line x1="16.48528137423857cm" x2="19.313708498984763cm" y1="87.25483399593905cm" y2="90.08326112068525cm" /><line x1="19.313708498984763cm" x2="19.313708498984763cm" y1="90.08326112068525cm" y2="94.08326112068525cm" /><line x1="17cm" x2="12.050252531694166cm" y1="0cm" y2="4.949747468305834cm" /><line x1="12.050252531694166cm" x2="12.050252531694166cm" y1="4.949747468305834cm" y2="8.949747468305834cm" /><line x1="12.050252531694166cm" x2="18.414213562373092cm" y1="8.949747468305834cm" y2="15.31370849898476cm" /><line x1="18.414213562373092cm" x2="18.414213562373092cm" y1="15.31370849898476cm" y2="20.31370849898476cm" /><line x1="18.414213562373092cm" x2="20.535533905932734cm" y1="20.31370849898476cm" y2="22.4350288425444cm" /><line x1="20.535533905932734cm" x2="20.535533905932734cm" y1="22.4350288425444cm" y2="26.4350288425444cm" /><line x1="20.535533905932734cm" x2="23.363961030678926cm" y1="26.4350288425444cm" y2="29.263455967290593cm" /><line x1="23.363961030678926cm" x2="23.363961030678926cm" y1="29.263455967290593cm" y2="34.2634559672906cm" /><line x1="23.363961030678926cm" x2="19.828427124746188cm" y1="34.2634559672906cm" y2="37.798989873223334cm" /><line x1="19.828427124746188cm" x2="19.828427124746188cm" y1="37.798989873223334cm" y2="42.798989873223334cm" /><line x1="19.828427124746188cm" x2="24.071067811865472cm" y1="42.798989873223334cm" y2="47.04163056034262cm" /><line x1="24.071067811865472cm" x2="24.071067811865472cm" y1="47.04163056034262cm" y2="50.04163056034262cm" /><line x1="24.071067811865472cm" x2="21.94974746830583cm" y1="50.04163056034262cm" y2="52.16295090390226cm" /><line x1="21.94974746830583cm" x2="21.94974746830583cm" y1="52.16295090390226cm" y2="55.16295090390226cm" /><line x1="21.94974746830583cm" x2="18.414213562373092cm" y1="55.16295090390226cm" y2="58.698484809834994cm" /><line x1="18.414213562373092cm" x2="18.414213562373092cm" y1="58.698484809834994cm" y2="62.698484809834994cm" /><line x1="18.414213562373092cm" x2="16.29289321881345cm" y1="62.698484809834994cm" y2="64.81980515339464cm" /><line x1="16.29289321881345cm" x2="16.29289321881345cm" y1="64.81980515339464cm" y2="69.81980515339464cm" /><line x1="16.29289321881345cm" x2="21.94974746830583cm" y1="69.81980515339464cm" y2="75.47665940288702cm" /><line x1="21.94974746830583cm" x2="21.94974746830583cm" y1="75.47665940288702cm" y2="80.47665940288702cm" /><line x1="21.94974746830583cm" x2="26.899494936611664cm" y1="80.47665940288702cm" y2="85.42640687119285cm" /><line x1="26.899494936611664cm" x2="26.899494936611664cm" y1="85.42640687119285cm" y2="89.42640687119285cm" /><line x1="26.899494936611664cm" x2="29.727922061357855cm" y1="89.42640687119285cm" y2="92.25483399593904cm" /><line x1="29.727922061357855cm" x2="29.727922061357855cm" y1="92.25483399593904cm" y2="95.25483399593904cm" /><line x1="30cm" x2="36.36396103067893cm" y1="0cm" y2="6.363961030678929cm" /><line x1="36.36396103067893cm" x2="36.36396103067893cm" y1="6.363961030678929cm" y2="13.36396103067893cm" /><line x1="36.36396103067893cm" x2="31.414213562373096cm" y1="13.36396103067893cm" y2="18.313708498984763cm" /><line x1="31.414213562373096cm" x2="31.414213562373096cm" y1="18.313708498984763cm" y2="24.313708498984763cm" /><line x1="31.414213562373096cm" x2="35.65685424949238cm" y1="24.313708498984763cm" y2="28.55634918610405cm" /><line x1="35.65685424949238cm" x2="35.65685424949238cm" y1="28.55634918610405cm" y2="34.55634918610405cm" /><line x1="35.65685424949238cm" x2="34.24264068711929cm" y1="34.55634918610405cm" y2="35.97056274847714cm" /><line x1="34.24264068711929cm" x2="34.24264068711929cm" y1="35.97056274847714cm" y2="45.97056274847714cm" /><line x1="34.24264068711929cm" x2="27.171572875253815cm" y1="45.97056274847714cm" y2="53.04163056034262cm" /><line x1="27.171572875253815cm" x2="27.171572875253815cm" y1="53.04163056034262cm" y2="63.04163056034262cm" /><line x1="27.171572875253815cm" x2="25.75735931288072cm" y1="63.04163056034262cm" y2="64.45584412271572cm" /><line x1="25.75735931288072cm" x2="25.75735931288072cm" y1="64.45584412271572cm" y2="69.45584412271572cm" /><line x1="25.75735931288072cm" x2="28.58578643762691cm" y1="69.45584412271572cm" y2="72.2842712474619cm" /><line x1="28.58578643762691cm" x2="28.58578643762691cm" y1="72.2842712474619cm" y2="82.2842712474619cm" /><line x1="28.58578643762691cm" x2="33.535533905932745cm" y1="82.2842712474619cm" y2="87.23401871576773cm" /><line x1="33.535533905932745cm" x2="33.535533905932745cm" y1="87.23401871576773cm" y2="90.23401871576773cm" /><line x1="33.535533905932745cm" x2="32.12132034355965cm" y1="90.23401871576773cm" y2="91.64823227814082cm" /><line x1="32.12132034355965cm" x2="32.12132034355965cm" y1="91.64823227814082cm" y2="98.64823227814082cm" /><line x1="49cm" x2="46.878679656440355cm" y1="0cm" y2="2.1213203435596455cm" /><line x1="46.878679656440355cm" x2="46.878679656440355cm" y1="2.1213203435596455cm" y2="11.121320343559645cm" /><line x1="46.878679656440355cm" x2="39.80761184457488cm" y1="11.121320343559645cm" y2="18.19238815542512cm" /><line x1="39.80761184457488cm" x2="39.80761184457488cm" y1="18.19238815542512cm" y2="22.19238815542512cm" /><line x1="39.80761184457488cm" x2="41.22182540694797cm" y1="22.19238815542512cm" y2="23.606601717798213cm" /><line x1="41.22182540694797cm" x2="41.22182540694797cm" y1="23.606601717798213cm" y2="26.606601717798213cm" /><line x1="41.22182540694797cm" x2="34.85786437626904cm" y1="26.606601717798213cm" y2="32.97056274847714cm" /><line x1="34.85786437626904cm" x2="34.85786437626904cm" y1="32.97056274847714cm" y2="41.97056274847714cm" /><line x1="34.85786437626904cm" x2="33.44365081389595cm" y1="41.97056274847714cm" y2="43.384776310850235cm" /><line x1="33.44365081389595cm" x2="33.44365081389595cm" y1="43.384776310850235cm" y2="45.384776310850235cm" /><line x1="33.44365081389595cm" x2="39.10050506338833cm" y1="45.384776310850235cm" y2="51.04163056034262cm" /><line x1="39.10050506338833cm" x2="39.10050506338833cm" y1="51.04163056034262cm" y2="57.04163056034262cm" /><line x1="39.10050506338833cm" x2="45.46446609406726cm" y1="57.04163056034262cm" y2="63.40559159102155cm" /><line x1="45.46446609406726cm" x2="45.46446609406726cm" y1="63.40559159102155cm" y2="65.40559159102155cm" /><line x1="45.46446609406726cm" x2="48.292893218813454cm" y1="65.40559159102155cm" y2="68.23401871576775cm" /><line x1="48.292893218813454cm" x2="48.292893218813454cm" y1="68.23401871576775cm" y2="72.23401871576775cm" /><line x1="48.292893218813454cm" x2="41.22182540694798cm" y1="72.23401871576775cm" y2="79.30508652763322cm" /><line x1="41.22182540694798cm" x2="41.22182540694798cm" y1="79.30508652763322cm" y2="89.30508652763322cm" /><line x1="41.22182540694798cm" x2="44.05025253169417cm" y1="89.30508652763322cm" y2="92.1335136523794cm" /><line x1="54cm" x2="55.41421356237309cm" y1="0cm" y2="1.4142135623730923cm" /><line x1="55.41421356237309cm" x2="55.41421356237309cm" y1="1.4142135623730923cm" y2="8.414213562373092cm" /><line x1="55.41421356237309cm" x2="49.05025253169416cm" y1="8.414213562373092cm" y2="14.778174593052022cm" /><line x1="49.05025253169416cm" x2="49.05025253169416cm" y1="14.778174593052022cm" y2="19.77817459305202cm" /><line x1="49.05025253169416cm" x2="55.41421356237309cm" y1="19.77817459305202cm" y2="26.14213562373095cm" /><line x1="55.41421356237309cm" x2="55.41421356237309cm" y1="26.14213562373095cm" y2="35.14213562373095cm" /><line x1="55.41421356237309cm" x2="56.828427124746185cm" y1="35.14213562373095cm" y2="36.55634918610404cm" /><line x1="56.828427124746185cm" x2="56.828427124746185cm" y1="36.55634918610404cm" y2="40.55634918610404cm" /><line x1="56.828427124746185cm" x2="51.1715728752538cm" y1="40.55634918610404cm" y2="46.21320343559643cm" /><line x1="51.1715728752538cm" x2="51.1715728752538cm" y1="46.21320343559643cm" y2="53.21320343559643cm" /><line x1="51.1715728752538cm" x2="53.99999999999999cm" y1="53.21320343559643cm" y2="56.04163056034262cm" /><line x1="53.99999999999999cm" x2="53.99999999999999cm" y1="56.04163056034262cm" y2="58.04163056034262cm" /><line x1="53.99999999999999cm" x2="51.87867965644035cm" y1="58.04163056034262cm" y2="60.162950903902264cm" /><line x1="51.87867965644035cm" x2="51.87867965644035cm" y1="60.162950903902264cm" y2="68.16295090390227cm" /><line x1="51.87867965644035cm" x2="48.34314575050761cm" y1="68.16295090390227cm" y2="71.69848480983501cm" /><line x1="48.34314575050761cm" x2="48.34314575050761cm" y1="71.69848480983501cm" y2="77.69848480983501cm" /><line x1="48.34314575050761cm" x2="45.51471862576142cm" y1="77.69848480983501cm" y2="80.5269119345812cm" /><line x1="45.51471862576142cm" x2="45.51471862576142cm" y1="80.5269119345812cm" y2="89.5269119345812cm" /><line x1="45.51471862576142cm" x2="44.100505063388326cm" y1="89.5269119345812cm" y2="90.94112549695429cm" /><line x1="44.100505063388326cm" x2="44.100505063388326cm" y1="90.94112549695429cm" y2="97.94112549695429cm" /></g><circle class="class1 class2" cx="8cm" cy="0cm" fill="blue" r="0.5cm" stroke="blue" stroke-width="3" /><circle class="class1 class2" cx="8cm" cy="0cm" fill="black" r="0.4cm" stroke="black" stroke-width="3" /><circle class="class1 class2" cx="12.242640687119284cm" cy="4.242640687119284cm" fill="blue" r="0.5cm" stroke="blue" stroke-width="3" /><circle class="class1 class2" cx="12.242640687119284cm" cy="4.242640687119284cm" fill="black" r="0.4cm" stroke="black" stroke-width="3" /><circle class="class1 class2" cx="12.242640687119284cm" cy="9.242640687119284cm" fill="blue" r="0.5cm" stroke="blue" stroke-width="3" /><circle class="class1 class2" cx="12.242640687119284cm" cy="9.242640687119284cm" fill="black" r="0.4cm" stroke="black" stroke-width="3" /><circle class="class1 class2" cx="17.192388155425117cm" cy="14.192388155425117cm" fill="blue" r="0.5cm" stroke="blue" stroke-width="3" /><circle class="class1 class2" cx="17.192388155425117cm" cy="14.192388155425117cm" fill="black" r="0.4cm" stroke="black" stroke-width="3" /><circle class="class1 class2" cx="17.192388155425117cm" cy="19.192388155425117cm" fill="blue" r="0.5cm" stroke="blue" stroke-width="3" /><circle class="class1 class2" cx="17.192388155425117cm" cy="19.192388155425117cm" fill="black" r="0.4cm" stroke="black" stroke-width="3" /><circle class="class1 class2" cx="10.121320343559642cm" cy="26.263455967290593cm" fill="blue" r="0.5cm" stroke="blue" stroke-width="3" /><circle class="class1 class2" cx="10.121320343559642cm" cy="26.263455967290593cm" fill="black" r="0.4cm" stroke="black" stroke-width="3" /><circle class="class1 class2" cx="10.121320343559642cm" cy="28.263455967290593cm" fill="blue" r="0.5cm" stroke="blue" stroke-width="3" /><circle class="class1 class2" cx="10.121320343559642cm" cy="28.263455967290593cm" fill="black" r="0.4cm" stroke="black" stroke-width="3" /><circle class="class1 class2" cx="8.0cm" cy="30.384776310850235cm" fill="blue" r="0.5cm" stroke="blue" stroke-width="3" /><circle class="class1 class2" cx="8.0cm" cy="30.384776310850235cm" fill="black" r="0.4cm" stroke="black" stroke-width="3" /><circle class="class1 class2" cx="8.0cm" cy="35.384776310850235cm" fill="blue" r="0.5cm" stroke="blue" stroke-width="3" /><circle class="class1 class2" cx="8.0cm" cy="35.384776310850235cm" fill="black" r="0.4cm" stroke="black" stroke-width="3" /><circle class="class1 class2" cx="9.414213562373096cm" cy="36.798989873223334cm" fill="blue" r="0.5cm" stroke="blue" stroke-width="3" /><circle class="class1 class2" cx="9.414213562373096cm" cy="36.798989873223334cm" fill="black" r="0.4cm" stroke="black" stroke-width="3" /><circle class="class1 class2" cx="9.414213562373096cm" cy="40.798989873223334cm" fill="blue" r="0.5cm" stroke="blue" stroke-width="3" /><circle class="class1 class2" cx="9.414213562373096cm" cy="40.798989873223334cm" fill="black" r="0.4cm" stroke="black" stroke-width="3" /><circle class="class1 class2" cx="11.535533905932738cm" cy="42.92031021678298cm" fill="blue" r="0.5cm" stroke="blue" stroke-width="3" /><circle class="class1 class2" cx="11.535533905932738cm" cy="42.92031021678298cm" fill="black" r="0.4cm" stroke="black" stroke-width="3" /><circle class="class1 class2" cx="11.535533905932738cm" cy="47.92031021678298cm" fill="blue" r="0.5cm" stroke="blue" stroke-width="3" /><circle class="class1 class2" cx="11.535533905932738cm" cy="47.92031021678298cm" fill="black" r="0.4cm" stroke="black" stroke-width="3" /><circle class="class1 class2" cx="6.585786437626905cm" cy="52.87005768508881cm" fill="blue" r="0.5cm" stroke="blue" stroke-width="3" /><circle class="class1 class2" cx="6.585786437626905cm" cy="52.87005768508881cm" fill="black" r="0.4cm" stroke="black" stroke-width="3" /><circle class="class1 class2" cx="6.585786437626905cm" cy="54.87005768508881cm" fill="blue" r="0.5cm" stroke="blue" stroke-width="3" /><circle class="class1 class2" cx="6.585786437626905cm" cy="54.87005768508881cm" fill="black" r="0.4cm" stroke="black" stroke-width="3" /><circle class="class1 class2" cx="3.757359312880715cm" cy="57.698484809835cm" fill="blue" r="0.5cm" stroke="blue" stroke-width="3" /><circle class="class1 class2" cx="3.757359312880715cm" cy="57.698484809835cm" fill="black" r="0.4cm" stroke="black" stroke-width="3" /><circle class="class1 class2" cx="3.757359312880715cm" cy="61.698484809835cm" fill="blue" r="0.5cm" stroke="blue" stroke-width="3" /><circle class="class1 class2" cx="3.757359312880715cm" cy="61.698484809835cm" fill="black" r="0.4cm" stroke="black" stroke-width="3" /><circle class="class1 class2" cx="8.707106781186548cm" cy="66.64823227814084cm" fill="blue" r="0.5cm" stroke="blue" stroke-width="3" /><circle class="class1 class2" cx="8.707106781186548cm" cy="66.64823227814084cm" fill="black" r="0.4cm" stroke="black" stroke-width="3" /><circle class="class1 class2" cx="8.707106781186548cm" cy="69.64823227814084cm" fill="blue" r="0.5cm" stroke="blue" stroke-width="3" /><circle class="class1 class2" cx="8.707106781186548cm" cy="69.64823227814084cm" fill="black" r="0.4cm" stroke="black" stroke-width="3" /><circle class="class1 class2" cx="10.82842712474619cm" cy="71.76955262170048cm" fill="blue" r="0.5cm" stroke="blue" stroke-width="3" /><circle class="class1 class2" cx="10.82842712474619cm" cy="71.76955262170048cm" fill="black" r="0.4cm" stroke="black" stroke-width="3" /><circle class="class1 class2" cx="10.82842712474619cm" cy="73.76955262170048cm" fill="blue" r="0.5cm" stroke="blue" stroke-width="3" /><circle class="class1 class2" cx="10.82842712474619cm" cy="73.76955262170048cm" fill="black" r="0.4cm" stroke="black" stroke-width="3" /><circle class="class1 class2" cx="17.899494936611667cm" cy="80.84062043356596cm" fill="blue" r="0.5cm" stroke="blue" stroke-width="3" /><circle class="class1 class2" cx="17.899494936611667cm" cy="80.84062043356596cm" fill="black" r="0.4cm" stroke="black" stroke-width="3" /><circle class="class1 class2" cx="17.899494936611667cm" cy="83.84062043356596cm" fill="blue" r="0.5cm" stroke="blue" stroke-width="3" /><circle class="class1 class2" cx="17.899494936611667cm" cy="83.84062043356596cm" fill="black" r="0.4cm" stroke="black" stroke-width="3" /><circle class="class1 class2" cx="16.48528137423857cm" cy="85.25483399593905cm" fill="blue" r="0.5cm" stroke="blue" stroke-width="3" /><circle class="class1 class2" cx="16.48528137423857cm" cy="85.25483399593905cm" fill="black" r="0.4cm" stroke="black" stroke-width="3" /><circle class="class1 class2" cx="16.48528137423857cm" cy="87.25483399593905cm" fill="blue" r="0.5cm" stroke="blue" stroke-width="3" /><circle class="class1 class2" cx="16.48528137423857cm" cy="87.25483399593905cm" fill="black" r="0.4cm" stroke="black" stroke-width="3" /><circle class="class1 class2" cx="19.313708498984763cm" cy="90.08326112068525cm" fill="blue" r="0.5cm" stroke="blue" stroke-width="3" /><circle class="class1 class2" cx="19.313708498984763cm" cy="90.08326112068525cm" fill="black" r="0.4cm" stroke="black" stroke-width="3" /><circle class="class1 class2" cx="17cm" cy="0cm" fill="blue" r="0.5cm" stroke="blue" stroke-width="3" /><circle class="class1 class2" cx="17cm" cy="0cm" fill="black" r="0.4cm" stroke="black" stroke-width="3" /><circle class="class1 class2" cx="12.050252531694166cm" cy="4.949747468305834cm" fill="blue" r="0.5cm" stroke="blue" stroke-width="3" /><circle class="class1 class2" cx="12.050252531694166cm" cy="4.949747468305834cm" fill="black" r="0.4cm" stroke="black" stroke-width="3" /><circle class="class1 class2" cx="12.050252531694166cm" cy="8.949747468305834cm" fill="blue" r="0.5cm" stroke="blue" stroke-width="3" /><circle class="class1 class2" cx="12.050252531694166cm" cy="8.949747468305834cm" fill="black" r="0.4cm" stroke="black" stroke-width="3" /><circle class="class1 class2" cx="18.414213562373092cm" cy="15.31370849898476cm" fill="blue" r="0.5cm" stroke="blue" stroke-width="3" /><circle class="class1 class2" cx="18.414213562373092cm" cy="15.31370849898476cm" fill="black" r="0.4cm" stroke="black" stroke-width="3" /><circle class="class1 class2" cx="18.414213562373092cm" cy="20.31370849898476cm" fill="blue" r="0.5cm" stroke="blue" stroke-width="3" /><circle class="class1 class2" cx="18.414213562373092cm" cy="20.31370849898476cm" fill="black" r="0.4cm" stroke="black" stroke-width="3" /><circle class="class1 class2" cx="20.535533905932734cm" cy="22.4350288425444cm" fill="blue" r="0.5cm" stroke="blue" stroke-width="3" /><circle class="class1 class2" cx="20.535533905932734cm" cy="22.4350288425444cm" fill="black" r="0.4cm" stroke="black" stroke-width="3" /><circle class="class1 class2" cx="20.535533905932734cm" cy="26.4350288425444cm" fill="blue" r="0.5cm" stroke="blue" stroke-width="3" /><circle class="class1 class2" cx="20.535533905932734cm" cy="26.4350288425444cm" fill="black" r="0.4cm" stroke="black" stroke-width="3" /><circle class="class1 class2" cx="23.363961030678926cm" cy="29.263455967290593cm" fill="blue" r="0.5cm" stroke="blue" stroke-width="3" /><circle class="class1 class2" cx="23.363961030678926cm" cy="29.263455967290593cm" fill="black" r="0.4cm" stroke="black" stroke-width="3" /><circle class="class1 class2" cx="23.363961030678926cm" cy="34.2634559672906cm" fill="blue" r="0.5cm" stroke="blue" stroke-width="3" /><circle class="class1 class2" cx="23.363961030678926cm" cy="34.2634559672906cm" fill="black" r="0.4cm" stroke="black" stroke-width="3" /><circle class="class1 class2" cx="19.828427124746188cm" cy="37.798989873223334cm" fill="blue" r="0.5cm" stroke="blue" stroke-width="3" /><circle class="class1 class2" cx="19.828427124746188cm" cy="37.798989873223334cm" fill="black" r="0.4cm" stroke="black" stroke-width="3" /><circle class="class1 class2" cx="19.828427124746188cm" cy="42.798989873223334cm" fill="blue" r="0.5cm" stroke="blue" stroke-width="3" /><circle class="class1 class2" cx="19.828427124746188cm" cy="42.798989873223334cm" fill="black" r="0.4cm" stroke="black" stroke-width="3" /><circle class="class1 class2" cx="24.071067811865472cm" cy="47.04163056034262cm" fill="blue" r="0.5cm" stroke="blue" stroke-width="3" /><circle class="class1 class2" cx="24.071067811865472cm" cy="47.04163056034262cm" fill="black" r="0.4cm" stroke="black" stroke-width="3" /><circle class="class1 class2" cx="24.071067811865472cm" cy="50.04163056034262cm" fill="blue" r="0.5cm" stroke="blue" stroke-width="3" /><circle class="class1 class2" cx="24.071067811865472cm" cy="50.04163056034262cm" fill="black" r="0.4cm" stroke="black" stroke-width="3" /><circle class="class1 class2" cx="21.94974746830583cm" cy="52.16295090390226cm" fill="blue" r="0.5cm" stroke="blue" stroke-width="3" /><circle class="class1 class2" cx="21.94974746830583cm" cy="52.16295090390226cm" fill="black" r="0.4cm" stroke="black" stroke-width="3" /><circle class="class1 class2" cx="21.94974746830583cm" cy="55.16295090390226cm" fill="blue" r="0.5cm" stroke="blue" stroke-width="3" /><circle class="class1 class2" cx="21.94974746830583cm" cy="55.16295090390226cm" fill="black" r="0.4cm" stroke="black" stroke-width="3" /><circle class="class1 class2" cx="18.414213562373092cm" cy="58.698484809834994cm" fill="blue" r="0.5cm" stroke="blue" stroke-width="3" /><circle class="class1 class2" cx="18.414213562373092cm" cy="58.698484809834994cm" fill="black" r="0.4cm" stroke="black" stroke-width="3" /><circle class="class1 class2" cx="18.414213562373092cm" cy="62.698484809834994cm" fill="blue" r="0.5cm" stroke="blue" stroke-width="3" /><circle class="class1 class2" cx="18.414213562373092cm" cy="62.698484809834994cm" fill="black" r="0.4cm" stroke="black" stroke-width="3" /><circle class="class1 class2" cx="16.29289321881345cm" cy="64.81980515339464cm" fill="blue" r="0.5cm" stroke="blue" stroke-width="3" /><circle class="class1 class2" cx="16.29289321881345cm" cy="64.81980515339464cm" fill="black" r="0.4cm" stroke="black" stroke-width="3" /><circle class="class1 class2" cx="16.29289321881345cm" cy="69.81980515339464cm" fill="blue" r="0.5cm" stroke="blue" stroke-width="3" /><circle class="class1 class2" cx="16.29289321881345cm" cy="69.81980515339464cm" fill="black" r="0.4cm" stroke="black" stroke-width="3" /><circle class="class1 class2" cx="21.94974746830583cm" cy="75.47665940288702cm" fill="blue" r="0.5cm" stroke="blue" stroke-width="3" /><circle class="class1 class2" cx="21.94974746830583cm" cy="75.47665940288702cm" fill="black" r="0.4cm" stroke="black" stroke-width="3" /><circle class="class1 class2" cx="21.94974746830583cm" cy="80.47665940288702cm" fill="blue" r="0.5cm" stroke="blue" stroke-width="3" /><circle class="class1 class2" cx="21.94974746830583cm" cy="80.47665940288702cm" fill="black" r="0.4cm" stroke="black" stroke-width="3" /><circle class="class1 class2" cx="26.899494936611664cm" cy="85.42640687119285cm" fill="blue" r="0.5cm" stroke="blue" stroke-width="3" /><circle class="class1 class2" cx="26.899494936611664cm" cy="85.42640687119285cm" fill="black" r="0.4cm" stroke="black" stroke-width="3" /><circle class="class1 class2" cx="26.899494936611664cm" cy="89.42640687119285cm" fill="blue" r="0.5cm" stroke="blue" stroke-width="3" /><circle class="class1 class2" cx="26.899494936611664cm" cy="89.42640687119285cm" fill="black" r="0.4cm" stroke="black" stroke-width="3" /><circle class="class1 class2" cx="29.727922061357855cm" cy="92.25483399593904cm" fill="blue" r="0.5cm" stroke="blue" stroke-width="3" /><circle class="class1 class2" cx="29.727922061357855cm" cy="92.25483399593904cm" fill="black" r="0.4cm" stroke="black" stroke-width="3" /><circle class="class1 class2" cx="30cm" cy="0cm" fill="blue" r="0.5cm" stroke="blue" stroke-width="3" /><circle class="class1 class2" cx="30cm" cy="0cm" fill="black" r="0.4cm" stroke="black" stroke-width="3" /><circle class="class1 class2" cx="36.36396103067893cm" cy="6.363961030678929cm" fill="blue" r="0.5cm" stroke="blue" stroke-width="3" /><circle class="class1 class2" cx="36.36396103067893cm" cy="6.363961030678929cm" fill="black" r="0.4cm" stroke="black" stroke-width="3" /><circle class="class1 class2" cx="36.36396103067893cm" cy="13.36396103067893cm" fill="blue" r="0.5cm" stroke="blue" stroke-width="3" /><circle class="class1 class2" cx="36.36396103067893cm" cy="13.36396103067893cm" fill="black" r="0.4cm" stroke="black" stroke-width="3" /><circle class="class1 class2" cx="31.414213562373096cm" cy="18.313708498984763cm" fill="blue" r="0.5cm" stroke="blue" stroke-width="3" /><circle class="class1 class2" cx="31.414213562373096cm" cy="18.313708498984763cm" fill="black" r="0.4cm" stroke="black" stroke-width="3" /><circle class="class1 class2" cx="31.414213562373096cm" cy="24.313708498984763cm" fill="blue" r="0.5cm" stroke="blue" stroke-width="3" /><circle class="class1 class2" cx="31.414213562373096cm" cy="24.313708498984763cm" fill="black" r="0.4cm" stroke="black" stroke-width="3" /><circle class="class1 class2" cx="35.65685424949238cm" cy="28.55634918610405cm" fill="blue" r="0.5cm" stroke="blue" stroke-width="3" /><circle class="class1 class2" cx="35.65685424949238cm" cy="28.55634918610405cm" fill="black" r="0.4cm" stroke="black" stroke-width="3" /><circle class="class1 class2" cx="35.65685424949238cm" cy="34.55634918610405cm" fill="blue" r="0.5cm" stroke="blue" stroke-width="3" /><circle class="class1 class2" cx="35.65685424949238cm" cy="34.55634918610405cm" fill="black" r="0.4cm" stroke="black" stroke-width="3" /><circle class="class1 class2" cx="34.24264068711929cm" cy="35.97056274847714cm" fill="blue" r="0.5cm" stroke="blue" stroke-width="3" /><circle class="class1 class2" cx="34.24264068711929cm" cy="35.97056274847714cm" fill="black" r="0.4cm" stroke="black" stroke-width="3" /><circle class="class1 class2" cx="34.24264068711929cm" cy="45.97056274847714cm" fill="blue" r="0.5cm" stroke="blue" stroke-width="3" /><circle class="class1 class2" cx="34.24264068711929cm" cy="45.97056274847714cm" fill="black" r="0.4cm" stroke="black" stroke-width="3" /><circle class="class1 class2" cx="27.171572875253815cm" cy="53.04163056034262cm" fill="blue" r="0.5cm" stroke="blue" stroke-width="3" /><circle class="class1 class2" cx="27.171572875253815cm" cy="53.04163056034262cm" fill="black" r="0.4cm" stroke="black" stroke-width="3" /><circle class="class1 class2" cx="27.171572875253815cm" cy="63.04163056034262cm" fill="blue" r="0.5cm" stroke="blue" stroke-width="3" /><circle class="class1 class2" cx="27.171572875253815cm" cy="63.04163056034262cm" fill="black" r="0.4cm" stroke="black" stroke-width="3" /><circle class="class1 class2" cx="25.75735931288072cm" cy="64.45584412271572cm" fill="blue" r="0.5cm" stroke="blue" stroke-width="3" /><circle class="class1 class2" cx="25.75735931288072cm" cy="64.45584412271572cm" fill="black" r="0.4cm" stroke="black" stroke-width="3" /><circle class="class1 class2" cx="25.75735931288072cm" cy="69.45584412271572cm" fill="blue" r="0.5cm" stroke="blue" stroke-width="3" /><circle class="class1 class2" cx="25.75735931288072cm" cy="69.45584412271572cm" fill="black" r="0.4cm" stroke="black" stroke-width="3" /><circle class="class1 class2" cx="28.58578643762691cm" cy="72.2842712474619cm" fill="blue" r="0.5cm" stroke="blue" stroke-width="3" /><circle class="class1 class2" cx="28.58578643762691cm" cy="72.2842712474619cm" fill="black" r="0.4cm" stroke="black" stroke-width="3" /><circle class="class1 class2" cx="28.58578643762691cm" cy="82.2842712474619cm" fill="blue" r="0.5cm" stroke="blue" stroke-width="3" /><circle class="class1 class2" cx="28.58578643762691cm" cy="82.2842712474619cm" fill="black" r="0.4cm" stroke="black" stroke-width="3" /><circle class="class1 class2" cx="33.535533905932745cm" cy="87.23401871576773cm" fill="blue" r="0.5cm" stroke="blue" stroke-width="3" /><circle class="class1 class2" cx="33.535533905932745cm" cy="87.23401871576773cm" fill="black" r="0.4cm" stroke="black" stroke-width="3" /><circle class="class1 class2" cx="33.535533905932745cm" cy="90.23401871576773cm" fill="blue" r="0.5cm" stroke="blue" stroke-width="3" /><circle class="class1 class2" cx="33.535533905932745cm" cy="90.23401871576773cm" fill="black" r="0.4cm" stroke="black" stroke-width="3" /><circle class="class1 class2" cx="32.12132034355965cm" cy="91.64823227814082cm" fill="blue" r="0.5cm" stroke="blue" stroke-width="3" /><circle class="class1 class2" cx="32.12132034355965cm" cy="91.64823227814082cm" fill="black" r="0.4cm" stroke="black" stroke-width="3" /><circle class="class1 class2" cx="49cm" cy="0cm" fill="blue" r="0.5cm" stroke="blue" stroke-width="3" /><circle class="class1 class2" cx="49cm" cy="0cm" fill="black" r="0.4cm" stroke="black" stroke-width="3" /><circle class="class1 class2" cx="46.878679656440355cm" cy="2.1213203435596455cm" fill="blue" r="0.5cm" stroke="blue" stroke-width="3" /><circle class="class1 class2" cx="46.878679656440355cm" cy="2.1213203435596455cm" fill="black" r="0.4cm" stroke="black" stroke-width="3" /><circle class="class1 class2" cx="46.878679656440355cm" cy="11.121320343559645cm" fill="blue" r="0.5cm" stroke="blue" stroke-width="3" /><circle class="class1 class2" cx="46.878679656440355cm" cy="11.121320343559645cm" fill="black" r="0.4cm" stroke="black" stroke-width="3" /><circle class="class1 class2" cx="39.80761184457488cm" cy="18.19238815542512cm" fill="blue" r="0.5cm" stroke="blue" stroke-width="3" /><circle class="class1 class2" cx="39.80761184457488cm" cy="18.19238815542512cm" fill="black" r="0.4cm" stroke="black" stroke-width="3" /><circle class="class1 class2" cx="39.80761184457488cm" cy="22.19238815542512cm" fill="blue" r="0.5cm" stroke="blue" stroke-width="3" /><circle class="class1 class2" cx="39.80761184457488cm" cy="22.19238815542512cm" fill="black" r="0.4cm" stroke="black" stroke-width="3" /><circle class="class1 class2" cx="41.22182540694797cm" cy="23.606601717798213cm" fill="blue" r="0.5cm" stroke="blue" stroke-width="3" /><circle class="class1 class2" cx="41.22182540694797cm" cy="23.606601717798213cm" fill="black" r="0.4cm" stroke="black" stroke-width="3" /><circle class="class1 class2" cx="41.22182540694797cm" cy="26.606601717798213cm" fill="blue" r="0.5cm" stroke="blue" stroke-width="3" /><circle class="class1 class2" cx="41.22182540694797cm" cy="26.606601717798213cm" fill="black" r="0.4cm" stroke="black" stroke-width="3" /><circle class="class1 class2" cx="34.85786437626904cm" cy="32.97056274847714cm" fill="blue" r="0.5cm" stroke="blue" stroke-width="3" /><circle class="class1 class2" cx="34.85786437626904cm" cy="32.97056274847714cm" fill="black" r="0.4cm" stroke="black" stroke-width="3" /><circle class="class1 class2" cx="34.85786437626904cm" cy="41.97056274847714cm" fill="blue" r="0.5cm" stroke="blue" stroke-width="3" /><circle class="class1 class2" cx="34.85786437626904cm" cy="41.97056274847714cm" fill="black" r="0.4cm" stroke="black" stroke-width="3" /><circle class="class1 class2" cx="33.44365081389595cm" cy="43.384776310850235cm" fill="blue" r="0.5cm" stroke="blue" stroke-width="3" /><circle class="class1 class2" cx="33.44365081389595cm" cy="43.384776310850235cm" fill="black" r="0.4cm" stroke="black" stroke-width="3" /><circle class="class1 class2" cx="33.44365081389595cm" cy="45.384776310850235cm" fill="blue" r="0.5cm" stroke="blue" stroke-width="3" /><circle class="class1 class2" cx="33.44365081389595cm" cy="45.384776310850235cm" fill="black" r="0.4cm" stroke="black" stroke-width="3" /><circle class="class1 class2" cx="39.10050506338833cm" cy="51.04163056034262cm" fill="blue" r="0.5cm" stroke="blue" stroke-width="3" /><circle class="class1 class2" cx="39.10050506338833cm" cy="51.04163056034262cm" fill="black" r="0.4cm" stroke="black" stroke-width="3" /><circle class="class1 class2" cx="39.10050506338833cm" cy="57.04163056034262cm" fill="blue" r="0.5cm" stroke="blue" stroke-width="3" /><circle class="class1 class2" cx="39.10050506338833cm" cy="57.04163056034262cm" fill="black" r="0.4cm" stroke="black" stroke-width="3" /><circle class="class1 class2" cx="45.46446609406726cm" cy="63.40559159102155cm" fill="blue" r="0.5cm" stroke="blue" stroke-width="3" /><circle class="class1 class2" cx="45.46446609406726cm" cy="63.40559159102155cm" fill="black" r="0.4cm" stroke="black" stroke-width="3" /><circle class="class1 class2" cx="45.46446609406726cm" cy="65.40559159102155cm" fill="blue" r="0.5cm" stroke="blue" stroke-width="3" /><circle class="class1 class2" cx="45.46446609406726cm" cy="65.40559159102155cm" fill="black" r="0.4cm" stroke="black" stroke-width="3" /><circle class="class1 class2" cx="48.292893218813454cm" cy="68.23401871576775cm" fill="blue" r="0.5cm" stroke="blue" stroke-width="3" /><circle class="class1 class2" cx="48.292893218813454cm" cy="68.23401871576775cm" fill="black" r="0.4cm" stroke="black" stroke-width="3" /><circle class="class1 class2" cx="48.292893218813454cm" cy="72.23401871576775cm" fill="blue" r="0.5cm" stroke="blue" stroke-width="3" /><circle class="class1 class2" cx="48.292893218813454cm" cy="72.23401871576775cm" fill="black" r="0.4cm" stroke="black" stroke-width="3" /><circle class="class1 class2" cx="41.22182540694798cm" cy="79.30508652763322cm" fill="blue" r="0.5cm" stroke="blue" stroke-width="3" /><circle class="class1 class2" cx="41.22182540694798cm" cy="79.30508652763322cm" fill="black" r="0.4cm" stroke="black" stroke-width="3" /><circle class="class1 class2" cx="41.22182540694798cm" cy="89.30508652763322cm" fill="blue" r="0.5cm" stroke="blue" stroke-width="3" /><circle class="class1 class2" cx="41.22182540694798cm" cy="89.30508652763322cm" fill="black" r="0.4cm" stroke="black" stroke-width="3" /><circle class="class1 class2" cx="54cm" cy="0cm" fill="blue" r="0.5cm" stroke="blue" stroke-width="3" /><circle class="class1 class2" cx="54cm" cy="0cm" fill="black" r="0.4cm" stroke="black" stroke-width="3" /><circle class="class1 class2" cx="55.41421356237309cm" cy="1.4142135623730923cm" fill="blue" r="0.5cm" stroke="blue" stroke-width="3" /><circle class="class1 class2" cx="55.41421356237309cm" cy="1.4142135623730923cm" fill="black" r="0.4cm" stroke="black" stroke-width="3" /><circle class="class1 class2" cx="55.41421356237309cm" cy="8.414213562373092cm" fill="blue" r="0.5cm" stroke="blue" stroke-width="3" /><circle class="class1 class2" cx="55.41421356237309cm" cy="8.414213562373092cm" fill="black" r="0.4cm" stroke="black" stroke-width="3" /><circle class="class1 class2" cx="49.05025253169416cm" cy="14.778174593052022cm" fill="blue" r="0.5cm" stroke="blue" stroke-width="3" /><circle class="class1 class2" cx="49.05025253169416cm" cy="14.778174593052022cm" fill="black" r="0.4cm" stroke="black" stroke-width="3" /><circle class="class1 class2" cx="49.05025253169416cm" cy="19.77817459305202cm" fill="blue" r="0.5cm" stroke="blue" stroke-width="3" /><circle class="class1 class2" cx="49.05025253169416cm" cy="19.77817459305202cm" fill="black" r="0.4cm" stroke="black" stroke-width="3" /><circle class="class1 class2" cx="55.41421356237309cm" cy="26.14213562373095cm" fill="blue" r="0.5cm" stroke="blue" stroke-width="3" /><circle class="class1 class2" cx="55.41421356237309cm" cy="26.14213562373095cm" fill="black" r="0.4cm" stroke="black" stroke-width="3" /><circle class="class1 class2" cx="55.41421356237309cm" cy="35.14213562373095cm" fill="blue" r="0.5cm" stroke="blue" stroke-width="3" /><circle class="class1 class2" cx="55.41421356237309cm" cy="35.14213562373095cm" fill="black" r="0.4cm" stroke="black" stroke-width="3" /><circle class="class1 class2" cx="56.828427124746185cm" cy="36.55634918610404cm" fill="blue" r="0.5cm" stroke="blue" stroke-width="3" /><circle class="class1 class2" cx="56.828427124746185cm" cy="36.55634918610404cm" fill="black" r="0.4cm" stroke="black" stroke-width="3" /><circle class="class1 class2" cx="56.828427124746185cm" cy="40.55634918610404cm" fill="blue" r="0.5cm" stroke="blue" stroke-width="3" /><circle class="class1 class2" cx="56.828427124746185cm" cy="40.55634918610404cm" fill="black" r="0.4cm" stroke="black" stroke-width="3" /><circle class="class1 class2" cx="51.1715728752538cm" cy="46.21320343559643cm" fill="blue" r="0.5cm" stroke="blue" stroke-width="3" /><circle class="class1 class2" cx="51.1715728752538cm" cy="46.21320343559643cm" fill="black" r="0.4cm" stroke="black" stroke-width="3" /><circle class="class1 class2" cx="51.1715728752538cm" cy="53.21320343559643cm" fill="blue" r="0.5cm" stroke="blue" stroke-width="3" /><circle class="class1 class2" cx="51.1715728752538cm" cy="53.21320343559643cm" fill="black" r="0.4cm" stroke="black" stroke-width="3" /><circle class="class1 class2" cx="53.99999999999999cm" cy="56.04163056034262cm" fill="blue" r="0.5cm" stroke="blue" stroke-width="3" /><circle class="class1 class2" cx="53.99999999999999cm" cy="56.04163056034262cm" fill="black" r="0.4cm" stroke="black" stroke-width="3" /><circle class="class1 class2" cx="53.99999999999999cm" cy="58.04163056034262cm" fill="blue" r="0.5cm" stroke="blue" stroke-width="3" /><circle class="class1 class2" cx="53.99999999999999cm" cy="58.04163056034262cm" fill="black" r="0.4cm" stroke="black" stroke-width="3" /><circle class="class1 class2" cx="51.87867965644035cm" cy="60.162950903902264cm" fill="blue" r="0.5cm" stroke="blue" stroke-width="3" /><circle class="class1 class2" cx="51.87867965644035cm" cy="60.162950903902264cm" fill="black" r="0.4cm" stroke="black" stroke-width="3" /><circle class="class1 class2" cx="51.87867965644035cm" cy="68.16295090390227cm" fill="blue" r="0.5cm" stroke="blue" stroke-width="3" /><circle class="class1 class2" cx="51.87867965644035cm" cy="68.16295090390227cm" fill="black" r="0.4cm" stroke="black" stroke-width="3" /><circle class="class1 class2" cx="48.34314575050761cm" cy="71.69848480983501cm" fill="blue" r="0.5cm" stroke="blue" stroke-width="3" /><circle class="class1 class2" cx="48.34314575050761cm" cy="71.69848480983501cm" fill="black" r="0.4cm" stroke="black" stroke-width="3" /><circle class="class1 class2" cx="48.34314575050761cm" cy="77.69848480983501cm" fill="blue" r="0.5cm" stroke="blue" stroke-width="3" /><circle class="class1 class2" cx="48.34314575050761cm" cy="77.69848480983501cm" fill="black" r="0.4cm" stroke="black" stroke-width="3" /><circle class="class1 class2" cx="45.51471862576142cm" cy="80.5269119345812cm" fill="blue" r="0.5cm" stroke="blue" stroke-width="3" /><circle class="class1 class2" cx="45.51471862576142cm" cy="80.5269119345812cm" fill="black" r="0.4cm" stroke="black" stroke-width="3" /><circle class="class1 class2" cx="45.51471862576142cm" cy="89.5269119345812cm" fill="blue" r="0.5cm" stroke="blue" stroke-width="3" /><circle class="class1 class2" cx="45.51471862576142cm" cy="89.5269119345812cm" fill="black" r="0.4cm" stroke="black" stroke-width="3" /><circle class="class1 class2" cx="44.100505063388326cm" cy="90.94112549695429cm" fill="blue" r="0.5cm" stroke="blue" stroke-width="3" /><circle class="class1 class2" cx="44.100505063388326cm" cy="90.94112549695429cm" fill="black" r="0.4cm" stroke="black" stroke-width="3" /></svg>