<?xml version="1.0" encoding="utf-8" ?>
<svg baseProfile="full" height="100%" version="1.1" width="100%" xmlns="http://www.w3.org/2000/svg" xmlns:ev="http://www.w3.org/2001/xml-events" xmlns:xlink="http://www.w3.org/1999/xlink"><defs /><rect fill="rgb(0,0,5)" height="100%" width="100%" x="0" y="0" /><g id="vline" stroke="blue" stroke-width="5"><line x1="5cm" x2="7.121320343559642cm" y1="0cm" y2="2.121320343559642cm" /><line x1="7.121320343559642cm" x2="8.535533905932738cm" y1="2.121320343559642cm" y2="3.5355339059327378cm" /><line x1="8.535533905932738cm" x2="8.535533905932738cm" y1="3.5355339059327378cm" y2="6.535533905932738cm" /><line x1="8.535533905932738cm" x2="7.121320343559643cm" y1="6.535533905932738cm" y2="7.949747468305833cm" /><line x1="7.121320343559643cm" x2="8.535533905932738cm" y1="7.949747468305833cm" y2="9.363961030678928cm" /><line x1="8.535533905932738cm" x2="8.535533905932738cm" y1="9.363961030678928cm" y2="14.363961030678928cm" /><line x1="8.535533905932738cm" x2="9.949747468305834cm" y1="14.363961030678928cm" y2="15.778174593052023cm" /><line x1="9.949747468305834cm" x2="7.828427124746192cm" y1="15.778174593052023cm" y2="17.899494936611667cm" /><line x1="7.828427124746192cm" x2="7.828427124746192cm" y1="17.899494936611667cm" y2="20.899494936611667cm" /><line x1="7.828427124746192cm" x2="9.242640687119287cm" y1="20.899494936611667cm" y2="22.313708498984763cm" /><line x1="9.242640687119287cm" x2="7.8284271247461925cm" y1="22.313708498984763cm" y2="23.72792206135786cm" /><line x1="7.8284271247461925cm" x2="7.8284271247461925cm" y1="23.72792206135786cm" y2="28.72792206135786cm" /><line x1="7.8284271247461925cm" x2="5.000000000000002cm" y1="28.72792206135786cm" y2="31.55634918610405cm" /><line x1="5.000000000000002cm" x2="2.1715728752538115cm" y1="31.55634918610405cm" y2="34.38477631085024cm" /><line x1="2.1715728752538115cm" x2="2.1715728752538115cm" y1="34.38477631085024cm" y2="29.384776310850242cm" /><line x1="2.1715728752538115cm" x2="0.0502525316941691cm" y1="29.384776310850242cm" y2="31.506096654409884cm" /><line x1="0.0502525316941691cm" x2="2.1715728752538115cm" y1="31.506096654409884cm" y2="33.627416997969526cm" /><line x1="2.1715728752538115cm" x2="2.1715728752538115cm" y1="33.627416997969526cm" y2="35.627416997969526cm" /><line x1="2.1715728752538115cm" x2="0.7573593128807163cm" y1="35.627416997969526cm" y2="37.04163056034262cm" /><line x1="0.7573593128807163cm" x2="3.585786437626907cm" y1="37.04163056034262cm" y2="39.87005768508881cm" /><line x1="3.585786437626907cm" x2="3.585786437626907cm" y1="39.87005768508881cm" y2="41.87005768508881cm" /><line x1="3.585786437626907cm" x2="6.414213562373098cm" y1="41.87005768508881cm" y2="44.698484809835cm" /><line x1="6.414213562373098cm" x2="4.292893218813456cm" y1="44.698484809835cm" y2="46.81980515339464cm" /><line x1="4.292893218813456cm" x2="4.292893218813456cm" y1="46.81980515339464cm" y2="48.81980515339464cm" /><line x1="4.292893218813456cm" x2="7.1213203435596455cm" y1="48.81980515339464cm" y2="51.64823227814083cm" /><line x1="7.1213203435596455cm" x2="8.535533905932741cm" y1="51.64823227814083cm" y2="53.06244584051393cm" /><line x1="8.535533905932741cm" x2="8.535533905932741cm" y1="53.06244584051393cm" y2="55.06244584051393cm" /><line x1="8.535533905932741cm" x2="5.7071067811865515cm" y1="55.06244584051393cm" y2="57.89087296526012cm" /><line x1="5.7071067811865515cm" x2="9.24264068711929cm" y1="57.89087296526012cm" y2="61.42640687119286cm" /><line x1="9.24264068711929cm" x2="9.24264068711929cm" y1="61.42640687119286cm" y2="59.42640687119286cm" /><line x1="9.24264068711929cm" x2="7.121320343559647cm" y1="59.42640687119286cm" y2="61.5477272147525cm" /><line x1="7.121320343559647cm" x2="4.292893218813457cm" y1="61.5477272147525cm" y2="64.37615433949868cm" /><line x1="4.292893218813457cm" x2="4.292893218813457cm" y1="64.37615433949868cm" y2="67.37615433949868cm" /><line x1="4.292893218813457cm" x2="7.121320343559647cm" y1="67.37615433949868cm" y2="70.20458146424487cm" /><line x1="7.121320343559647cm" x2="9.24264068711929cm" y1="70.20458146424487cm" y2="72.32590180780451cm" /><line x1="9.24264068711929cm" x2="9.24264068711929cm" y1="72.32590180780451cm" y2="76.32590180780451cm" /><line x1="9.24264068711929cm" x2="7.828427124746194cm" y1="76.32590180780451cm" y2="77.7401153701776cm" /><line x1="7.828427124746194cm" x2="9.24264068711929cm" y1="77.7401153701776cm" y2="79.1543289325507cm" /><line x1="9.24264068711929cm" x2="9.24264068711929cm" y1="79.1543289325507cm" y2="82.1543289325507cm" /><line x1="9.24264068711929cm" x2="5.7071067811865515cm" y1="82.1543289325507cm" y2="85.68986283848344cm" /><line x1="5.7071067811865515cm" x2="2.1715728752538137cm" y1="85.68986283848344cm" y2="89.22539674441617cm" /><line x1="2.1715728752538137cm" x2="2.1715728752538137cm" y1="89.22539674441617cm" y2="93.22539674441617cm" /><line x1="2.1715728752538137cm" x2="5.0000000000000036cm" y1="93.22539674441617cm" y2="96.05382386916236cm" /><line x1="5.0000000000000036cm" x2="2.1715728752538133cm" y1="96.05382386916236cm" y2="98.88225099390854cm" /><line x1="2.1715728752538133cm" x2="2.1715728752538133cm" y1="98.88225099390854cm" y2="95.88225099390854cm" /><line x1="2.1715728752538133cm" x2="0.7573593128807181cm" y1="95.88225099390854cm" y2="97.29646455628163cm" /><line x1="0.7573593128807181cm" x2="2.1715728752538133cm" y1="97.29646455628163cm" y2="98.71067811865473cm" /><line x1="15cm" x2="17.121320343559642cm" y1="0cm" y2="2.121320343559642cm" /><line x1="17.121320343559642cm" x2="18.535533905932738cm" y1="2.121320343559642cm" y2="3.5355339059327378cm" /><line x1="18.535533905932738cm" x2="18.535533905932738cm" y1="3.5355339059327378cm" y2="6.535533905932738cm" /><line x1="18.535533905932738cm" x2="15.707106781186548cm" y1="6.535533905932738cm" y2="9.363961030678928cm" /><line x1="15.707106781186548cm" x2="12.17157287525381cm" y1="9.363961030678928cm" y2="12.899494936611665cm" /><line x1="12.17157287525381cm" x2="12.17157287525381cm" y1="12.899494936611665cm" y2="16.899494936611667cm" /><line x1="12.17157287525381cm" x2="10.757359312880714cm" y1="16.899494936611667cm" y2="18.313708498984763cm" /><line x1="10.757359312880714cm" x2="12.878679656440356cm" y1="18.313708498984763cm" y2="20.435028842544405cm" /><line x1="12.878679656440356cm" x2="12.878679656440356cm" y1="20.435028842544405cm" y2="22.435028842544405cm" /><line x1="12.878679656440356cm" x2="11.46446609406726cm" y1="22.435028842544405cm" y2="23.8492424049175cm" /><line x1="11.46446609406726cm" x2="10.050252531694165cm" y1="23.8492424049175cm" y2="25.263455967290597cm" /><line x1="10.050252531694165cm" x2="10.050252531694165cm" y1="25.263455967290597cm" y2="27.263455967290597cm" /><line x1="10.050252531694165cm" x2="12.171572875253807cm" y1="27.263455967290597cm" y2="29.38477631085024cm" /><line x1="12.171572875253807cm" x2="10.75735931288071cm" y1="29.38477631085024cm" y2="30.798989873223334cm" /><line x1="10.75735931288071cm" x2="10.75735931288071cm" y1="30.798989873223334cm" y2="27.798989873223334cm" /><line x1="10.75735931288071cm" x2="14.292893218813449cm" y1="27.798989873223334cm" y2="31.334523779156072cm" /><line x1="14.292893218813449cm" x2="17.12132034355964cm" y1="31.334523779156072cm" y2="34.162950903902264cm" /><line x1="17.12132034355964cm" x2="17.12132034355964cm" y1="34.162950903902264cm" y2="37.162950903902264cm" /><line x1="17.12132034355964cm" x2="14.999999999999996cm" y1="37.162950903902264cm" y2="39.2842712474619cm" /><line x1="14.999999999999996cm" x2="12.878679656440355cm" y1="39.2842712474619cm" y2="41.40559159102155cm" /><line x1="12.878679656440355cm" x2="12.878679656440355cm" y1="41.40559159102155cm" y2="46.40559159102155cm" /><line x1="12.878679656440355cm" x2="15.707106781186544cm" y1="46.40559159102155cm" y2="49.23401871576774cm" /><line x1="15.707106781186544cm" x2="14.292893218813449cm" y1="49.23401871576774cm" y2="50.64823227814084cm" /><line x1="14.292893218813449cm" x2="14.292893218813449cm" y1="50.64823227814084cm" y2="55.64823227814084cm" /><line x1="14.292893218813449cm" x2="12.878679656440353cm" y1="55.64823227814084cm" y2="57.06244584051393cm" /><line x1="12.878679656440353cm" x2="14.292893218813449cm" y1="57.06244584051393cm" y2="58.47665940288702cm" /><line x1="14.292893218813449cm" x2="14.292893218813449cm" y1="58.47665940288702cm" y2="63.47665940288702cm" /><line x1="14.292893218813449cm" x2="12.171572875253807cm" y1="63.47665940288702cm" y2="65.59797974644667cm" /><line x1="12.171572875253807cm" x2="10.75735931288071cm" y1="65.59797974644667cm" y2="67.01219330881976cm" /><line x1="10.75735931288071cm" x2="10.75735931288071cm" y1="67.01219330881976cm" y2="62.01219330881976cm" /><line x1="10.75735931288071cm" x2="12.171572875253807cm" y1="62.01219330881976cm" y2="63.42640687119285cm" /><line x1="12.171572875253807cm" x2="13.585786437626902cm" y1="63.42640687119285cm" y2="64.84062043356595cm" /><line x1="13.585786437626902cm" x2="13.585786437626902cm" y1="64.84062043356595cm" y2="66.84062043356595cm" /><line x1="13.585786437626902cm" x2="10.050252531694165cm" y1="66.84062043356595cm" y2="70.37615433949868cm" /><line x1="10.050252531694165cm" x2="13.585786437626902cm" y1="70.37615433949868cm" y2="73.91168824543142cm" /><line x1="13.585786437626902cm" x2="13.585786437626902cm" y1="73.91168824543142cm" y2="75.91168824543142cm" /><line x1="13.585786437626902cm" x2="11.46446609406726cm" y1="75.91168824543142cm" y2="78.03300858899107cm" /><line x1="11.46446609406726cm" x2="14.999999999999998cm" y1="78.03300858899107cm" y2="81.5685424949238cm" /><line x1="14.999999999999998cm" x2="14.999999999999998cm" y1="81.5685424949238cm" y2="86.5685424949238cm" /><line x1="14.999999999999998cm" x2="18.535533905932738cm" y1="86.5685424949238cm" y2="90.10407640085654cm" /><line x1="18.535533905932738cm" x2="19.949747468305834cm" y1="90.10407640085654cm" y2="91.51828996322963cm" /><line x1="19.949747468305834cm" x2="19.949747468305834cm" y1="91.51828996322963cm" y2="95.51828996322963cm" /><line x1="19.949747468305834cm" x2="18.535533905932738cm" y1="95.51828996322963cm" y2="96.93250352560273cm" /><line x1="18.535533905932738cm" x2="19.949747468305834cm" y1="96.93250352560273cm" y2="98.34671708797582cm" /><line x1="19.949747468305834cm" x2="19.949747468305834cm" y1="98.34671708797582cm" y2="94.34671708797582cm" /><line x1="19.949747468305834cm" x2="17.121320343559642cm" y1="94.34671708797582cm" y2="97.17514421272202cm" /><line x1="17.121320343559642cm" x2="15.0cm" y1="97.17514421272202cm" y2="99.29646455628166cm" /><line x1="20cm" x2="22.121320343559642cm" y1="0cm" y2="2.121320343559642cm" /><line x1="22.121320343559642cm" x2="24.949747468305834cm" y1="2.121320343559642cm" y2="4.949747468305834cm" /><line x1="24.949747468305834cm" x2="24.949747468305834cm" y1="4.949747468305834cm" y2="6.949747468305834cm" /><line x1="24.949747468305834cm" x2="22.82842712474619cm" y1="6.949747468305834cm" y2="9.071067811865476cm" /><line x1="22.82842712474619cm" x2="20.70710678118655cm" y1="9.071067811865476cm" y2="11.192388155425117cm" /><line x1="20.70710678118655cm" x2="20.70710678118655cm" y1="11.192388155425117cm" y2="13.192388155425117cm" /><line x1="20.70710678118655cm" x2="22.121320343559645cm" y1="13.192388155425117cm" y2="14.606601717798213cm" /><line x1="22.121320343559645cm" x2="24.242640687119287cm" y1="14.606601717798213cm" y2="16.727922061357855cm" /><line x1="24.242640687119287cm" x2="24.242640687119287cm" y1="16.727922061357855cm" y2="20.727922061357855cm" /><line x1="24.242640687119287cm" x2="22.121320343559645cm" y1="20.727922061357855cm" y2="22.849242404917497cm" /><line x1="22.121320343559645cm" x2="25.656854249492383cm" y1="22.849242404917497cm" y2="26.384776310850235cm" /><line x1="25.656854249492383cm" x2="25.656854249492383cm" y1="26.384776310850235cm" y2="29.384776310850235cm" /><line x1="25.656854249492383cm" x2="22.121320343559645cm" y1="29.384776310850235cm" y2="32.92031021678297cm" /><line x1="22.121320343559645cm" x2="23.53553390593274cm" y1="32.92031021678297cm" y2="34.33452377915607cm" /><line x1="23.53553390593274cm" x2="23.53553390593274cm" y1="34.33452377915607cm" y2="32.33452377915607cm" /><line x1="23.53553390593274cm" x2="21.4142135623731cm" y1="32.33452377915607cm" y2="34.45584412271572cm" /><line x1="21.4142135623731cm" x2="23.53553390593274cm" y1="34.45584412271572cm" y2="36.57716446627536cm" /><line x1="23.53553390593274cm" x2="23.53553390593274cm" y1="36.57716446627536cm" y2="39.57716446627536cm" /><line x1="23.53553390593274cm" x2="25.656854249492383cm" y1="39.57716446627536cm" y2="41.69848480983501cm" /><line x1="25.656854249492383cm" x2="22.121320343559645cm" y1="41.69848480983501cm" y2="45.234018715767746cm" /><line x1="22.121320343559645cm" x2="22.121320343559645cm" y1="45.234018715767746cm" y2="48.234018715767746cm" /><line x1="22.121320343559645cm" x2="25.656854249492383cm" y1="48.234018715767746cm" y2="51.769552621700484cm" /><line x1="25.656854249492383cm" x2="22.82842712474619cm" y1="51.769552621700484cm" y2="54.597979746446676cm" /><line x1="22.82842712474619cm" x2="22.82842712474619cm" y1="54.597979746446676cm" y2="59.597979746446676cm" /><line x1="22.82842712474619cm" x2="20.70710678118655cm" y1="59.597979746446676cm" y2="61.719300090006314cm" /><line x1="20.70710678118655cm" x2="22.121320343559645cm" y1="61.719300090006314cm" y2="63.133513652379406cm" /><line x1="22.121320343559645cm" x2="22.121320343559645cm" y1="63.133513652379406cm" y2="68.1335136523794cm" /><line x1="22.121320343559645cm" x2="24.949747468305837cm" y1="68.1335136523794cm" y2="70.96194077712559cm" /><line x1="24.949747468305837cm" x2="22.121320343559645cm" y1="70.96194077712559cm" y2="73.79036790187178cm" /><line x1="22.121320343559645cm" x2="22.121320343559645cm" y1="73.79036790187178cm" y2="68.79036790187178cm" /><line x1="22.121320343559645cm" x2="20.000000000000004cm" y1="68.79036790187178cm" y2="70.91168824543142cm" /><line x1="20.000000000000004cm" x2="22.828427124746195cm" y1="70.91168824543142cm" y2="73.74011537017762cm" /><line x1="22.828427124746195cm" x2="22.828427124746195cm" y1="73.74011537017762cm" y2="77.74011537017762cm" /><line x1="22.828427124746195cm" x2="24.24264068711929cm" y1="77.74011537017762cm" y2="79.15432893255071cm" /><line x1="24.24264068711929cm" x2="25.656854249492387cm" y1="79.15432893255071cm" y2="80.5685424949238cm" /><line x1="25.656854249492387cm" x2="25.656854249492387cm" y1="80.5685424949238cm" y2="85.5685424949238cm" /><line x1="25.656854249492387cm" x2="27.77817459305203cm" y1="85.5685424949238cm" y2="87.68986283848345cm" /><line x1="27.77817459305203cm" x2="25.656854249492387cm" y1="87.68986283848345cm" y2="89.8111831820431cm" /><line x1="25.656854249492387cm" x2="25.656854249492387cm" y1="89.8111831820431cm" y2="92.8111831820431cm" /><line x1="25.656854249492387cm" x2="24.24264068711929cm" y1="92.8111831820431cm" y2="94.22539674441619cm" /><line x1="24.24264068711929cm" x2="22.12132034355965cm" y1="94.22539674441619cm" y2="96.34671708797583cm" /><line x1="35cm" x2="32.878679656440355cm" y1="0cm" y2="2.1213203435596455cm" /><line x1="32.878679656440355cm" x2="36.41421356237309cm" y1="2.1213203435596455cm" y2="5.656854249492383cm" /><line x1="36.41421356237309cm" x2="36.41421356237309cm" y1="5.656854249492383cm" y2="10.656854249492383cm" /><line x1="36.41421356237309cm" x2="34.29289321881345cm" y1="10.656854249492383cm" y2="12.778174593052029cm" /><line x1="34.29289321881345cm" x2="35.70710678118654cm" y1="12.778174593052029cm" y2="14.192388155425121cm" /><line x1="35.70710678118654cm" x2="35.70710678118654cm" y1="14.192388155425121cm" y2="17.19238815542512cm" /><line x1="35.70710678118654cm" x2="37.12132034355963cm" y1="17.19238815542512cm" y2="18.606601717798213cm" /><line x1="37.12132034355963cm" x2="34.29289321881344cm" y1="18.606601717798213cm" y2="21.435028842544405cm" /><line x1="34.29289321881344cm" x2="34.29289321881344cm" y1="21.435028842544405cm" y2="26.435028842544405cm" /><line x1="34.29289321881344cm" x2="37.12132034355963cm" y1="26.435028842544405cm" y2="29.263455967290597cm" /><line x1="37.12132034355963cm" x2="39.24264068711928cm" y1="29.263455967290597cm" y2="31.384776310850242cm" /><line x1="39.24264068711928cm" x2="39.24264068711928cm" y1="31.384776310850242cm" y2="34.38477631085024cm" /><line x1="39.24264068711928cm" x2="37.12132034355963cm" y1="34.38477631085024cm" y2="36.50609665440989cm" /><line x1="37.12132034355963cm" x2="38.53553390593272cm" y1="36.50609665440989cm" y2="37.92031021678298cm" /><line x1="38.53553390593272cm" x2="38.53553390593272cm" y1="37.92031021678298cm" y2="33.92031021678298cm" /><line x1="38.53553390593272cm" x2="36.41421356237308cm" y1="33.92031021678298cm" y2="36.041630560342625cm" /><line x1="36.41421356237308cm" x2="32.87867965644034cm" y1="36.041630560342625cm" y2="39.57716446627536cm" /><line x1="32.87867965644034cm" x2="32.87867965644034cm" y1="39.57716446627536cm" y2="43.57716446627536cm" /><line x1="32.87867965644034cm" x2="34.29289321881343cm" y1="43.57716446627536cm" y2="44.991378028648455cm" /><line x1="34.29289321881343cm" x2="35.707106781186525cm" y1="44.991378028648455cm" y2="46.40559159102155cm" /><line x1="35.707106781186525cm" x2="35.707106781186525cm" y1="46.40559159102155cm" y2="48.40559159102155cm" /><line x1="35.707106781186525cm" x2="32.17157287525379cm" y1="48.40559159102155cm" y2="51.941125496954285cm" /><line x1="32.17157287525379cm" x2="30.050252531694145cm" y1="51.941125496954285cm" y2="54.06244584051393cm" /><line x1="30.050252531694145cm" x2="30.050252531694145cm" y1="54.06244584051393cm" y2="57.06244584051393cm" /><line x1="30.050252531694145cm" x2="32.17157287525379cm" y1="57.06244584051393cm" y2="59.183766184073576cm" /><line x1="32.17157287525379cm" x2="33.58578643762688cm" y1="59.183766184073576cm" y2="60.59797974644667cm" /><line x1="33.58578643762688cm" x2="33.58578643762688cm" y1="60.59797974644667cm" y2="64.59797974644667cm" /><line x1="33.58578643762688cm" x2="30.757359312880688cm" y1="64.59797974644667cm" y2="67.42640687119285cm" /><line x1="30.757359312880688cm" x2="34.292893218813425cm" y1="67.42640687119285cm" y2="70.96194077712559cm" /><line x1="34.292893218813425cm" x2="34.292893218813425cm" y1="70.96194077712559cm" y2="67.96194077712559cm" /><line x1="34.292893218813425cm" x2="37.82842712474616cm" y1="67.96194077712559cm" y2="71.49747468305833cm" /><line x1="37.82842712474616cm" x2="39.242640687119255cm" y1="71.49747468305833cm" y2="72.91168824543142cm" /><line x1="39.242640687119255cm" x2="39.242640687119255cm" y1="72.91168824543142cm" y2="74.91168824543142cm" /><line x1="39.242640687119255cm" x2="36.414213562373064cm" y1="74.91168824543142cm" y2="77.74011537017762cm" /><line x1="36.414213562373064cm" x2="34.29289321881342cm" y1="77.74011537017762cm" y2="79.86143571373727cm" /><line x1="34.29289321881342cm" x2="34.29289321881342cm" y1="79.86143571373727cm" y2="81.86143571373727cm" /><line x1="34.29289321881342cm" x2="37.828427124746156cm" y1="81.86143571373727cm" y2="85.39696961967cm" /><line x1="37.828427124746156cm" x2="34.999999999999964cm" y1="85.39696961967cm" y2="88.2253967444162cm" /><line x1="34.999999999999964cm" x2="34.999999999999964cm" y1="88.2253967444162cm" y2="90.2253967444162cm" /><line x1="34.999999999999964cm" x2="31.464466094067227cm" y1="90.2253967444162cm" y2="93.76093065034894cm" /><line x1="31.464466094067227cm" x2="32.87867965644032cm" y1="93.76093065034894cm" y2="95.17514421272203cm" /><line x1="32.87867965644032cm" x2="32.87867965644032cm" y1="95.17514421272203cm" y2="97.17514421272203cm" /><line x1="32.87867965644032cm" x2="30.757359312880677cm" y1="97.17514421272203cm" y2="99.29646455628168cm" /><line x1="48cm" x2="49.41421356237309cm" y1="0cm" y2="1.4142135623730923cm" /><line x1="49.41421356237309cm" x2="45.878679656440355cm" y1="1.4142135623730923cm" y2="4.94974746830583cm" /><line x1="45.878679656440355cm" x2="45.878679656440355cm" y1="4.94974746830583cm" y2="9.94974746830583cm" /><line x1="45.878679656440355cm" x2="44.46446609406726cm" y1="9.94974746830583cm" y2="11.363961030678922cm" /><line x1="44.46446609406726cm" x2="41.63603896932107cm" y1="11.363961030678922cm" y2="14.192388155425114cm" /><line x1="41.63603896932107cm" x2="41.63603896932107cm" y1="14.192388155425114cm" y2="18.192388155425114cm" /><line x1="41.63603896932107cm" x2="44.46446609406726cm" y1="18.192388155425114cm" y2="21.020815280171306cm" /><line x1="44.46446609406726cm" x2="43.05025253169417cm" y1="21.020815280171306cm" y2="22.435028842544398cm" /><line x1="43.05025253169417cm" x2="43.05025253169417cm" y1="22.435028842544398cm" y2="25.435028842544398cm" /><line x1="43.05025253169417cm" x2="46.58578643762691cm" y1="25.435028842544398cm" y2="28.970562748477136cm" /><line x1="46.58578643762691cm" x2="48.70710678118655cm" y1="28.970562748477136cm" y2="31.09188309203678cm" /><line x1="48.70710678118655cm" x2="48.70710678118655cm" y1="31.09188309203678cm" y2="36.09188309203678cm" /><line x1="48.70710678118655cm" x2="46.58578643762691cm" y1="36.09188309203678cm" y2="38.21320343559643cm" /><line x1="46.58578643762691cm" x2="49.4142135623731cm" y1="38.21320343559643cm" y2="41.04163056034262cm" /><line x1="49.4142135623731cm" x2="49.4142135623731cm" y1="41.04163056034262cm" y2="36.04163056034262cm" /><line x1="49.4142135623731cm" x2="47.292893218813454cm" y1="36.04163056034262cm" y2="38.162950903902264cm" /><line x1="47.292893218813454cm" x2="45.17157287525381cm" y1="38.162950903902264cm" y2="40.28427124746191cm" /><line x1="45.17157287525381cm" x2="45.17157287525381cm" y1="40.28427124746191cm" y2="45.28427124746191cm" /><line x1="45.17157287525381cm" x2="48.0cm" y1="45.28427124746191cm" y2="48.1126983722081cm" /><line x1="48.0cm" x2="44.46446609406726cm" y1="48.1126983722081cm" y2="51.64823227814084cm" /><line x1="44.46446609406726cm" x2="44.46446609406726cm" y1="51.64823227814084cm" y2="53.64823227814084cm" /><line x1="44.46446609406726cm" x2="48.0cm" y1="53.64823227814084cm" y2="57.183766184073576cm" /><line x1="48.0cm" x2="44.46446609406726cm" y1="57.183766184073576cm" y2="60.719300090006314cm" /><line x1="44.46446609406726cm" x2="44.46446609406726cm" y1="60.719300090006314cm" y2="62.719300090006314cm" /><line x1="44.46446609406726cm" x2="43.05025253169417cm" y1="62.719300090006314cm" y2="64.1335136523794cm" /><line x1="43.05025253169417cm" x2="46.58578643762691cm" y1="64.1335136523794cm" y2="67.66904755831214cm" /><line x1="46.58578643762691cm" x2="46.58578643762691cm" y1="67.66904755831214cm" y2="71.66904755831214cm" /><line x1="46.58578643762691cm" x2="45.171572875253815cm" y1="71.66904755831214cm" y2="73.08326112068524cm" /><line x1="45.171572875253815cm" x2="46.58578643762691cm" y1="73.08326112068524cm" y2="74.49747468305833cm" /><line x1="46.58578643762691cm" x2="46.58578643762691cm" y1="74.49747468305833cm" y2="72.49747468305833cm" /><line x1="46.58578643762691cm" x2="49.4142135623731cm" y1="72.49747468305833cm" y2="75.32590180780451cm" /><line x1="49.4142135623731cm" x2="48.00000000000001cm" y1="75.32590180780451cm" y2="76.7401153701776cm" /><line x1="48.00000000000001cm" x2="48.00000000000001cm" y1="76.7401153701776cm" y2="80.7401153701776cm" /><line x1="48.00000000000001cm" x2="49.4142135623731cm" y1="80.7401153701776cm" y2="82.1543289325507cm" /><line x1="49.4142135623731cm" x2="45.87867965644036cm" y1="82.1543289325507cm" y2="85.68986283848344cm" /><line x1="45.87867965644036cm" x2="45.87867965644036cm" y1="85.68986283848344cm" y2="88.68986283848344cm" /><line x1="45.87867965644036cm" x2="43.757359312880716cm" y1="88.68986283848344cm" y2="90.81118318204308cm" /><line x1="43.757359312880716cm" x2="42.343145750507624cm" y1="90.81118318204308cm" y2="92.22539674441617cm" /><line x1="42.343145750507624cm" x2="42.343145750507624cm" y1="92.22539674441617cm" y2="96.22539674441617cm" /><line x1="42.343145750507624cm" x2="45.87867965644036cm" y1="96.22539674441617cm" y2="99.76093065034891cm" /></g></svg>