<?xml version="1.0" encoding="utf-8" ?>
<svg baseProfile="full" height="100%" version="1.1" width="100%" xmlns="http://www.w3.org/2000/svg" xmlns:ev="http://www.w3.org/2001/xml-events" xmlns:xlink="http://www.w3.org/1999/xlink"><defs /><rect fill="rgb(0,0,5)" height="100%" width="100%" x="0" y="0" /><g id="vline" stroke="blue" stroke-width="5"><line x1="13cm" x2="9.464466094067262cm" y1="0cm" y2="3.5355339059327378cm" /><line x1="9.464466094067262cm" x2="9.464466094067262cm" y1="3.5355339059327378cm" y2="8.535533905932738cm" /><line x1="9.464466094067262cm" x2="6.636038969321072cm" y1="8.535533905932738cm" y2="11.363961030678928cm" /><line x1="6.636038969321072cm" x2="6.636038969321072cm" y1="11.363961030678928cm" y2="15.363961030678928cm" /><line x1="6.636038969321072cm" x2="13.707106781186548cm" y1="15.363961030678928cm" y2="22.435028842544405cm" /><line x1="13.707106781186548cm" x2="13.707106781186548cm" y1="22.435028842544405cm" y2="25.435028842544405cm" /><line x1="13.707106781186548cm" x2="7.34314575050762cm" y1="25.435028842544405cm" y2="31.798989873223334cm" /><line x1="7.34314575050762cm" x2="7.34314575050762cm" y1="31.798989873223334cm" y2="35.798989873223334cm" /><line x1="7.34314575050762cm" x2="2.3933982822017876cm" y1="35.798989873223334cm" y2="40.748737341529164cm" /><line x1="2.3933982822017876cm" x2="2.3933982822017876cm" y1="40.748737341529164cm" y2="43.748737341529164cm" /><line x1="2.3933982822017876cm" x2="3.8076118445748826cm" y1="43.748737341529164cm" y2="45.16295090390226cm" /><line x1="3.8076118445748826cm" x2="3.8076118445748826cm" y1="45.16295090390226cm" y2="48.16295090390226cm" /><line x1="3.8076118445748826cm" x2="6.636038969321072cm" y1="48.16295090390226cm" y2="50.99137802864845cm" /><line x1="6.636038969321072cm" x2="6.636038969321072cm" y1="50.99137802864845cm" y2="54.99137802864845cm" /><line x1="6.636038969321072cm" x2="5.2218254069479775cm" y1="54.99137802864845cm" y2="56.40559159102154cm" /><line x1="5.2218254069479775cm" x2="5.2218254069479775cm" y1="56.40559159102154cm" y2="58.40559159102154cm" /><line x1="5.2218254069479775cm" x2="10.878679656440358cm" y1="58.40559159102154cm" y2="64.06244584051392cm" /><line x1="10.878679656440358cm" x2="10.878679656440358cm" y1="64.06244584051392cm" y2="67.06244584051392cm" /><line x1="10.878679656440358cm" x2="4.5147186257614305cm" y1="67.06244584051392cm" y2="73.42640687119284cm" /><line x1="4.5147186257614305cm" x2="4.5147186257614305cm" y1="73.42640687119284cm" y2="76.42640687119284cm" /><line x1="4.5147186257614305cm" x2="2.393398282201788cm" y1="76.42640687119284cm" y2="78.54772721475248cm" /><line x1="2.393398282201788cm" x2="2.393398282201788cm" y1="78.54772721475248cm" y2="80.54772721475248cm" /><line x1="2.393398282201788cm" x2="4.5147186257614305cm" y1="80.54772721475248cm" y2="82.66904755831213cm" /><line x1="4.5147186257614305cm" x2="4.5147186257614305cm" y1="82.66904755831213cm" y2="85.66904755831213cm" /><line x1="4.5147186257614305cm" x2="0.2720779386421457cm" y1="85.66904755831213cm" y2="89.91168824543142cm" /><line x1="0.2720779386421457cm" x2="0.2720779386421457cm" y1="89.91168824543142cm" y2="92.91168824543142cm" /><line x1="0.2720779386421457cm" x2="1.6862915010152408cm" y1="92.91168824543142cm" y2="94.32590180780451cm" /><line x1="1.6862915010152408cm" x2="1.6862915010152408cm" y1="94.32590180780451cm" y2="96.32590180780451cm" /><line x1="15cm" x2="18.535533905932738cm" y1="0cm" y2="3.5355339059327378cm" /><line x1="18.535533905932738cm" x2="18.535533905932738cm" y1="3.5355339059327378cm" y2="6.535533905932738cm" /><line x1="18.535533905932738cm" x2="24.899494936611667cm" y1="6.535533905932738cm" y2="12.899494936611667cm" /><line x1="24.899494936611667cm" x2="24.899494936611667cm" y1="12.899494936611667cm" y2="17.899494936611667cm" /><line x1="24.899494936611667cm" x2="21.36396103067893cm" y1="17.899494936611667cm" y2="21.435028842544405cm" /><line x1="21.36396103067893cm" x2="21.36396103067893cm" y1="21.435028842544405cm" y2="26.435028842544405cm" /><line x1="21.36396103067893cm" x2="19.949747468305834cm" y1="26.435028842544405cm" y2="27.8492424049175cm" /><line x1="19.949747468305834cm" x2="19.949747468305834cm" y1="27.8492424049175cm" y2="31.8492424049175cm" /><line x1="19.949747468305834cm" x2="12.878679656440358cm" y1="31.8492424049175cm" y2="38.92031021678298cm" /><line x1="12.878679656440358cm" x2="12.878679656440358cm" y1="38.92031021678298cm" y2="42.92031021678298cm" /><line x1="12.878679656440358cm" x2="17.121320343559642cm" y1="42.92031021678298cm" y2="47.162950903902264cm" /><line x1="17.121320343559642cm" x2="17.121320343559642cm" y1="47.162950903902264cm" y2="51.162950903902264cm" /><line x1="17.121320343559642cm" x2="20.65685424949238cm" y1="51.162950903902264cm" y2="54.698484809835cm" /><line x1="20.65685424949238cm" x2="20.65685424949238cm" y1="54.698484809835cm" y2="59.698484809835cm" /><line x1="20.65685424949238cm" x2="24.192388155425117cm" y1="59.698484809835cm" y2="63.23401871576774cm" /><line x1="24.192388155425117cm" x2="24.192388155425117cm" y1="63.23401871576774cm" y2="67.23401871576775cm" /><line x1="24.192388155425117cm" x2="22.77817459305202cm" y1="67.23401871576775cm" y2="68.64823227814084cm" /><line x1="22.77817459305202cm" x2="22.77817459305202cm" y1="68.64823227814084cm" y2="72.64823227814084cm" /><line x1="22.77817459305202cm" x2="21.363961030678926cm" y1="72.64823227814084cm" y2="74.06244584051393cm" /><line x1="21.363961030678926cm" x2="21.363961030678926cm" y1="74.06244584051393cm" y2="76.06244584051393cm" /><line x1="21.363961030678926cm" x2="19.242640687119284cm" y1="76.06244584051393cm" y2="78.18376618407358cm" /><line x1="19.242640687119284cm" x2="19.242640687119284cm" y1="78.18376618407358cm" y2="83.18376618407358cm" /><line x1="19.242640687119284cm" x2="21.363961030678926cm" y1="83.18376618407358cm" y2="85.30508652763322cm" /><line x1="21.363961030678926cm" x2="21.363961030678926cm" y1="85.30508652763322cm" y2="90.30508652763322cm" /><line x1="21.363961030678926cm" x2="17.828427124746188cm" y1="90.30508652763322cm" y2="93.84062043356596cm" /><line x1="17.828427124746188cm" x2="17.828427124746188cm" y1="93.84062043356596cm" y2="97.84062043356596cm" /><line x1="31cm" x2="24.63603896932107cm" y1="0cm" y2="6.363961030678929cm" /><line x1="24.63603896932107cm" x2="24.63603896932107cm" y1="6.363961030678929cm" y2="11.36396103067893cm" /><line x1="24.63603896932107cm" x2="20.393398282201787cm" y1="11.36396103067893cm" y2="15.606601717798213cm" /><line x1="20.393398282201787cm" x2="20.393398282201787cm" y1="15.606601717798213cm" y2="23.606601717798213cm" /><line x1="20.393398282201787cm" x2="25.34314575050762cm" y1="23.606601717798213cm" y2="28.556349186104047cm" /><line x1="25.34314575050762cm" x2="25.34314575050762cm" y1="28.556349186104047cm" y2="36.55634918610404cm" /><line x1="25.34314575050762cm" x2="21.807611844574883cm" y1="36.55634918610404cm" y2="40.09188309203678cm" /><line x1="21.807611844574883cm" x2="21.807611844574883cm" y1="40.09188309203678cm" y2="42.09188309203678cm" /><line x1="21.807611844574883cm" x2="24.636038969321074cm" y1="42.09188309203678cm" y2="44.92031021678297cm" /><line x1="24.636038969321074cm" x2="24.636038969321074cm" y1="44.92031021678297cm" y2="54.92031021678297cm" /><line x1="24.636038969321074cm" x2="29.585786437626908cm" y1="54.92031021678297cm" y2="59.87005768508881cm" /><line x1="29.585786437626908cm" x2="29.585786437626908cm" y1="59.87005768508881cm" y2="62.87005768508881cm" /><line x1="29.585786437626908cm" x2="23.22182540694798cm" y1="62.87005768508881cm" y2="69.23401871576775cm" /><line x1="23.22182540694798cm" x2="23.22182540694798cm" y1="69.23401871576775cm" y2="76.23401871576775cm" /><line x1="23.22182540694798cm" x2="21.807611844574883cm" y1="76.23401871576775cm" y2="77.64823227814084cm" /><line x1="21.807611844574883cm" x2="21.807611844574883cm" y1="77.64823227814084cm" y2="82.64823227814084cm" /><line x1="21.807611844574883cm" x2="26.757359312880716cm" y1="82.64823227814084cm" y2="87.59797974644667cm" /><line x1="26.757359312880716cm" x2="26.757359312880716cm" y1="87.59797974644667cm" y2="95.59797974644667cm" /><line x1="26.757359312880716cm" x2="28.171572875253812cm" y1="95.59797974644667cm" y2="97.01219330881976cm" /><line x1="41cm" x2="39.58578643762691cm" y1="0cm" y2="1.4142135623730923cm" /><line x1="39.58578643762691cm" x2="39.58578643762691cm" y1="1.4142135623730923cm" y2="9.414213562373092cm" /><line x1="39.58578643762691cm" x2="43.82842712474619cm" y1="9.414213562373092cm" y2="13.656854249492376cm" /><line x1="43.82842712474619cm" x2="43.82842712474619cm" y1="13.656854249492376cm" y2="15.656854249492376cm" /><line x1="43.82842712474619cm" x2="48.77817459305202cm" y1="15.656854249492376cm" y2="20.606601717798206cm" /><line x1="48.77817459305202cm" x2="48.77817459305202cm" y1="20.606601717798206cm" y2="22.606601717798206cm" /><line x1="48.77817459305202cm" x2="46.656854249492376cm" y1="22.606601717798206cm" y2="24.72792206135785cm" /><line x1="46.656854249492376cm" x2="46.656854249492376cm" y1="24.72792206135785cm" y2="27.72792206135785cm" /><line x1="46.656854249492376cm" x2="43.12132034355964cm" y1="27.72792206135785cm" y2="31.26345596729059cm" /><line x1="43.12132034355964cm" x2="43.12132034355964cm" y1="31.26345596729059cm" y2="38.26345596729059cm" /><line x1="43.12132034355964cm" x2="41.707106781186546cm" y1="38.26345596729059cm" y2="39.67766952966368cm" /><line x1="41.707106781186546cm" x2="41.707106781186546cm" y1="39.67766952966368cm" y2="43.67766952966368cm" /><line x1="41.707106781186546cm" x2="36.05025253169416cm" y1="43.67766952966368cm" y2="49.334523779156065cm" /><line x1="36.05025253169416cm" x2="36.05025253169416cm" y1="49.334523779156065cm" y2="54.334523779156065cm" /><line x1="36.05025253169416cm" x2="43.12132034355964cm" y1="54.334523779156065cm" y2="61.40559159102154cm" /><line x1="43.12132034355964cm" x2="43.12132034355964cm" y1="61.40559159102154cm" y2="67.40559159102153cm" /><line x1="43.12132034355964cm" x2="37.464466094067255cm" y1="67.40559159102153cm" y2="73.06244584051392cm" /><line x1="37.464466094067255cm" x2="37.464466094067255cm" y1="73.06244584051392cm" y2="80.06244584051392cm" /><line x1="37.464466094067255cm" x2="38.87867965644035cm" y1="80.06244584051392cm" y2="81.47665940288701cm" /><line x1="38.87867965644035cm" x2="38.87867965644035cm" y1="81.47665940288701cm" y2="89.47665940288701cm" /><line x1="38.87867965644035cm" x2="42.414213562373085cm" y1="89.47665940288701cm" y2="93.01219330881975cm" /><line x1="42.414213562373085cm" x2="42.414213562373085cm" y1="93.01219330881975cm" y2="99.01219330881975cm" /><line x1="44cm" x2="40.46446609406726cm" y1="0cm" y2="3.5355339059327378cm" /><line x1="40.46446609406726cm" x2="40.46446609406726cm" y1="3.5355339059327378cm" y2="9.535533905932738cm" /><line x1="40.46446609406726cm" x2="41.878679656440355cm" y1="9.535533905932738cm" y2="10.94974746830583cm" /><line x1="41.878679656440355cm" x2="41.878679656440355cm" y1="10.94974746830583cm" y2="17.94974746830583cm" /><line x1="41.878679656440355cm" x2="48.94974746830583cm" y1="17.94974746830583cm" y2="25.020815280171306cm" /><line x1="48.94974746830583cm" x2="48.94974746830583cm" y1="25.020815280171306cm" y2="31.020815280171306cm" /><line x1="48.94974746830583cm" x2="51.071067811865476cm" y1="31.020815280171306cm" y2="33.14213562373095cm" /><line x1="51.071067811865476cm" x2="51.071067811865476cm" y1="33.14213562373095cm" y2="37.14213562373095cm" /><line x1="51.071067811865476cm" x2="54.60660171779821cm" y1="37.14213562373095cm" y2="40.67766952966369cm" /><line x1="54.60660171779821cm" x2="54.60660171779821cm" y1="40.67766952966369cm" y2="46.67766952966369cm" /><line x1="54.60660171779821cm" x2="48.242640687119284cm" y1="46.67766952966369cm" y2="53.04163056034262cm" /><line x1="48.242640687119284cm" x2="48.242640687119284cm" y1="53.04163056034262cm" y2="56.04163056034262cm" /><line x1="48.242640687119284cm" x2="44.0cm" y1="56.04163056034262cm" y2="60.2842712474619cm" /><line x1="44.0cm" x2="44.0cm" y1="60.2842712474619cm" y2="67.2842712474619cm" /><line x1="44.0cm" x2="45.41421356237309cm" y1="67.2842712474619cm" y2="68.698484809835cm" /><line x1="45.41421356237309cm" x2="45.41421356237309cm" y1="68.698484809835cm" y2="74.698484809835cm" /><line x1="45.41421356237309cm" x2="49.656854249492376cm" y1="74.698484809835cm" y2="78.94112549695427cm" /><line x1="49.656854249492376cm" x2="49.656854249492376cm" y1="78.94112549695427cm" y2="81.94112549695427cm" /><line x1="49.656854249492376cm" x2="53.89949493661166cm" y1="81.94112549695427cm" y2="86.18376618407356cm" /><line x1="53.89949493661166cm" x2="53.89949493661166cm" y1="86.18376618407356cm" y2="92.18376618407356cm" /><line x1="53.89949493661166cm" x2="51.778174593052015cm" y1="92.18376618407356cm" y2="94.30508652763321cm" /><line x1="51.778174593052015cm" x2="51.778174593052015cm" y1="94.30508652763321cm" y2="96.30508652763321cm" /></g><circle class="class1 class2" cx="13cm" cy="0cm" fill="blue" r="0.5cm" stroke="blue" stroke-width="3" /><circle class="class1 class2" cx="9.464466094067262cm" cy="3.5355339059327378cm" fill="blue" r="0.5cm" stroke="blue" stroke-width="3" /><circle class="class1 class2" cx="9.464466094067262cm" cy="8.535533905932738cm" fill="blue" r="0.5cm" stroke="blue" stroke-width="3" /><circle class="class1 class2" cx="6.636038969321072cm" cy="11.363961030678928cm" fill="blue" r="0.5cm" stroke="blue" stroke-width="3" /><circle class="class1 class2" cx="6.636038969321072cm" cy="15.363961030678928cm" fill="blue" r="0.5cm" stroke="blue" stroke-width="3" /><circle class="class1 class2" cx="13.707106781186548cm" cy="22.435028842544405cm" fill="blue" r="0.5cm" stroke="blue" stroke-width="3" /><circle class="class1 class2" cx="13.707106781186548cm" cy="25.435028842544405cm" fill="blue" r="0.5cm" stroke="blue" stroke-width="3" /><circle class="class1 class2" cx="7.34314575050762cm" cy="31.798989873223334cm" fill="blue" r="0.5cm" stroke="blue" stroke-width="3" /><circle class="class1 class2" cx="7.34314575050762cm" cy="35.798989873223334cm" fill="blue" r="0.5cm" stroke="blue" stroke-width="3" /><circle class="class1 class2" cx="2.3933982822017876cm" cy="40.748737341529164cm" fill="blue" r="0.5cm" stroke="blue" stroke-width="3" /><circle class="class1 class2" cx="2.3933982822017876cm" cy="43.748737341529164cm" fill="blue" r="0.5cm" stroke="blue" stroke-width="3" /><circle class="class1 class2" cx="3.8076118445748826cm" cy="45.16295090390226cm" fill="blue" r="0.5cm" stroke="blue" stroke-width="3" /><circle class="class1 class2" cx="3.8076118445748826cm" cy="48.16295090390226cm" fill="blue" r="0.5cm" stroke="blue" stroke-width="3" /><circle class="class1 class2" cx="6.636038969321072cm" cy="50.99137802864845cm" fill="blue" r="0.5cm" stroke="blue" stroke-width="3" /><circle class="class1 class2" cx="6.636038969321072cm" cy="54.99137802864845cm" fill="blue" r="0.5cm" stroke="blue" stroke-width="3" /><circle class="class1 class2" cx="5.2218254069479775cm" cy="56.40559159102154cm" fill="blue" r="0.5cm" stroke="blue" stroke-width="3" /><circle class="class1 class2" cx="5.2218254069479775cm" cy="58.40559159102154cm" fill="blue" r="0.5cm" stroke="blue" stroke-width="3" /><circle class="class1 class2" cx="10.878679656440358cm" cy="64.06244584051392cm" fill="blue" r="0.5cm" stroke="blue" stroke-width="3" /><circle class="class1 class2" cx="10.878679656440358cm" cy="67.06244584051392cm" fill="blue" r="0.5cm" stroke="blue" stroke-width="3" /><circle class="class1 class2" cx="4.5147186257614305cm" cy="73.42640687119284cm" fill="blue" r="0.5cm" stroke="blue" stroke-width="3" /><circle class="class1 class2" cx="4.5147186257614305cm" cy="76.42640687119284cm" fill="blue" r="0.5cm" stroke="blue" stroke-width="3" /><circle class="class1 class2" cx="2.393398282201788cm" cy="78.54772721475248cm" fill="blue" r="0.5cm" stroke="blue" stroke-width="3" /><circle class="class1 class2" cx="2.393398282201788cm" cy="80.54772721475248cm" fill="blue" r="0.5cm" stroke="blue" stroke-width="3" /><circle class="class1 class2" cx="4.5147186257614305cm" cy="82.66904755831213cm" fill="blue" r="0.5cm" stroke="blue" stroke-width="3" /><circle class="class1 class2" cx="4.5147186257614305cm" cy="85.66904755831213cm" fill="blue" r="0.5cm" stroke="blue" stroke-width="3" /><circle class="class1 class2" cx="0.2720779386421457cm" cy="89.91168824543142cm" fill="blue" r="0.5cm" stroke="blue" stroke-width="3" /><circle class="class1 class2" cx="0.2720779386421457cm" cy="92.91168824543142cm" fill="blue" r="0.5cm" stroke="blue" stroke-width="3" /><circle class="class1 class2" cx="1.6862915010152408cm" cy="94.32590180780451cm" fill="blue" r="0.5cm" stroke="blue" stroke-width="3" /><circle class="class1 class2" cx="15cm" cy="0cm" fill="blue" r="0.5cm" stroke="blue" stroke-width="3" /><circle class="class1 class2" cx="18.535533905932738cm" cy="3.5355339059327378cm" fill="blue" r="0.5cm" stroke="blue" stroke-width="3" /><circle class="class1 class2" cx="18.535533905932738cm" cy="6.535533905932738cm" fill="blue" r="0.5cm" stroke="blue" stroke-width="3" /><circle class="class1 class2" cx="24.899494936611667cm" cy="12.899494936611667cm" fill="blue" r="0.5cm" stroke="blue" stroke-width="3" /><circle class="class1 class2" cx="24.899494936611667cm" cy="17.899494936611667cm" fill="blue" r="0.5cm" stroke="blue" stroke-width="3" /><circle class="class1 class2" cx="21.36396103067893cm" cy="21.435028842544405cm" fill="blue" r="0.5cm" stroke="blue" stroke-width="3" /><circle class="class1 class2" cx="21.36396103067893cm" cy="26.435028842544405cm" fill="blue" r="0.5cm" stroke="blue" stroke-width="3" /><circle class="class1 class2" cx="19.949747468305834cm" cy="27.8492424049175cm" fill="blue" r="0.5cm" stroke="blue" stroke-width="3" /><circle class="class1 class2" cx="19.949747468305834cm" cy="31.8492424049175cm" fill="blue" r="0.5cm" stroke="blue" stroke-width="3" /><circle class="class1 class2" cx="12.878679656440358cm" cy="38.92031021678298cm" fill="blue" r="0.5cm" stroke="blue" stroke-width="3" /><circle class="class1 class2" cx="12.878679656440358cm" cy="42.92031021678298cm" fill="blue" r="0.5cm" stroke="blue" stroke-width="3" /><circle class="class1 class2" cx="17.121320343559642cm" cy="47.162950903902264cm" fill="blue" r="0.5cm" stroke="blue" stroke-width="3" /><circle class="class1 class2" cx="17.121320343559642cm" cy="51.162950903902264cm" fill="blue" r="0.5cm" stroke="blue" stroke-width="3" /><circle class="class1 class2" cx="20.65685424949238cm" cy="54.698484809835cm" fill="blue" r="0.5cm" stroke="blue" stroke-width="3" /><circle class="class1 class2" cx="20.65685424949238cm" cy="59.698484809835cm" fill="blue" r="0.5cm" stroke="blue" stroke-width="3" /><circle class="class1 class2" cx="24.192388155425117cm" cy="63.23401871576774cm" fill="blue" r="0.5cm" stroke="blue" stroke-width="3" /><circle class="class1 class2" cx="24.192388155425117cm" cy="67.23401871576775cm" fill="blue" r="0.5cm" stroke="blue" stroke-width="3" /><circle class="class1 class2" cx="22.77817459305202cm" cy="68.64823227814084cm" fill="blue" r="0.5cm" stroke="blue" stroke-width="3" /><circle class="class1 class2" cx="22.77817459305202cm" cy="72.64823227814084cm" fill="blue" r="0.5cm" stroke="blue" stroke-width="3" /><circle class="class1 class2" cx="21.363961030678926cm" cy="74.06244584051393cm" fill="blue" r="0.5cm" stroke="blue" stroke-width="3" /><circle class="class1 class2" cx="21.363961030678926cm" cy="76.06244584051393cm" fill="blue" r="0.5cm" stroke="blue" stroke-width="3" /><circle class="class1 class2" cx="19.242640687119284cm" cy="78.18376618407358cm" fill="blue" r="0.5cm" stroke="blue" stroke-width="3" /><circle class="class1 class2" cx="19.242640687119284cm" cy="83.18376618407358cm" fill="blue" r="0.5cm" stroke="blue" stroke-width="3" /><circle class="class1 class2" cx="21.363961030678926cm" cy="85.30508652763322cm" fill="blue" r="0.5cm" stroke="blue" stroke-width="3" /><circle class="class1 class2" cx="21.363961030678926cm" cy="90.30508652763322cm" fill="blue" r="0.5cm" stroke="blue" stroke-width="3" /><circle class="class1 class2" cx="17.828427124746188cm" cy="93.84062043356596cm" fill="blue" r="0.5cm" stroke="blue" stroke-width="3" /><circle class="class1 class2" cx="31cm" cy="0cm" fill="blue" r="0.5cm" stroke="blue" stroke-width="3" /><circle class="class1 class2" cx="24.63603896932107cm" cy="6.363961030678929cm" fill="blue" r="0.5cm" stroke="blue" stroke-width="3" /><circle class="class1 class2" cx="24.63603896932107cm" cy="11.36396103067893cm" fill="blue" r="0.5cm" stroke="blue" stroke-width="3" /><circle class="class1 class2" cx="20.393398282201787cm" cy="15.606601717798213cm" fill="blue" r="0.5cm" stroke="blue" stroke-width="3" /><circle class="class1 class2" cx="20.393398282201787cm" cy="23.606601717798213cm" fill="blue" r="0.5cm" stroke="blue" stroke-width="3" /><circle class="class1 class2" cx="25.34314575050762cm" cy="28.556349186104047cm" fill="blue" r="0.5cm" stroke="blue" stroke-width="3" /><circle class="class1 class2" cx="25.34314575050762cm" cy="36.55634918610404cm" fill="blue" r="0.5cm" stroke="blue" stroke-width="3" /><circle class="class1 class2" cx="21.807611844574883cm" cy="40.09188309203678cm" fill="blue" r="0.5cm" stroke="blue" stroke-width="3" /><circle class="class1 class2" cx="21.807611844574883cm" cy="42.09188309203678cm" fill="blue" r="0.5cm" stroke="blue" stroke-width="3" /><circle class="class1 class2" cx="24.636038969321074cm" cy="44.92031021678297cm" fill="blue" r="0.5cm" stroke="blue" stroke-width="3" /><circle class="class1 class2" cx="24.636038969321074cm" cy="54.92031021678297cm" fill="blue" r="0.5cm" stroke="blue" stroke-width="3" /><circle class="class1 class2" cx="29.585786437626908cm" cy="59.87005768508881cm" fill="blue" r="0.5cm" stroke="blue" stroke-width="3" /><circle class="class1 class2" cx="29.585786437626908cm" cy="62.87005768508881cm" fill="blue" r="0.5cm" stroke="blue" stroke-width="3" /><circle class="class1 class2" cx="23.22182540694798cm" cy="69.23401871576775cm" fill="blue" r="0.5cm" stroke="blue" stroke-width="3" /><circle class="class1 class2" cx="23.22182540694798cm" cy="76.23401871576775cm" fill="blue" r="0.5cm" stroke="blue" stroke-width="3" /><circle class="class1 class2" cx="21.807611844574883cm" cy="77.64823227814084cm" fill="blue" r="0.5cm" stroke="blue" stroke-width="3" /><circle class="class1 class2" cx="21.807611844574883cm" cy="82.64823227814084cm" fill="blue" r="0.5cm" stroke="blue" stroke-width="3" /><circle class="class1 class2" cx="26.757359312880716cm" cy="87.59797974644667cm" fill="blue" r="0.5cm" stroke="blue" stroke-width="3" /><circle class="class1 class2" cx="26.757359312880716cm" cy="95.59797974644667cm" fill="blue" r="0.5cm" stroke="blue" stroke-width="3" /><circle class="class1 class2" cx="41cm" cy="0cm" fill="blue" r="0.5cm" stroke="blue" stroke-width="3" /><circle class="class1 class2" cx="39.58578643762691cm" cy="1.4142135623730923cm" fill="blue" r="0.5cm" stroke="blue" stroke-width="3" /><circle class="class1 class2" cx="39.58578643762691cm" cy="9.414213562373092cm" fill="blue" r="0.5cm" stroke="blue" stroke-width="3" /><circle class="class1 class2" cx="43.82842712474619cm" cy="13.656854249492376cm" fill="blue" r="0.5cm" stroke="blue" stroke-width="3" /><circle class="class1 class2" cx="43.82842712474619cm" cy="15.656854249492376cm" fill="blue" r="0.5cm" stroke="blue" stroke-width="3" /><circle class="class1 class2" cx="48.77817459305202cm" cy="20.606601717798206cm" fill="blue" r="0.5cm" stroke="blue" stroke-width="3" /><circle class="class1 class2" cx="48.77817459305202cm" cy="22.606601717798206cm" fill="blue" r="0.5cm" stroke="blue" stroke-width="3" /><circle class="class1 class2" cx="46.656854249492376cm" cy="24.72792206135785cm" fill="blue" r="0.5cm" stroke="blue" stroke-width="3" /><circle class="class1 class2" cx="46.656854249492376cm" cy="27.72792206135785cm" fill="blue" r="0.5cm" stroke="blue" stroke-width="3" /><circle class="class1 class2" cx="43.12132034355964cm" cy="31.26345596729059cm" fill="blue" r="0.5cm" stroke="blue" stroke-width="3" /><circle class="class1 class2" cx="43.12132034355964cm" cy="38.26345596729059cm" fill="blue" r="0.5cm" stroke="blue" stroke-width="3" /><circle class="class1 class2" cx="41.707106781186546cm" cy="39.67766952966368cm" fill="blue" r="0.5cm" stroke="blue" stroke-width="3" /><circle class="class1 class2" cx="41.707106781186546cm" cy="43.67766952966368cm" fill="blue" r="0.5cm" stroke="blue" stroke-width="3" /><circle class="class1 class2" cx="36.05025253169416cm" cy="49.334523779156065cm" fill="blue" r="0.5cm" stroke="blue" stroke-width="3" /><circle class="class1 class2" cx="36.05025253169416cm" cy="54.334523779156065cm" fill="blue" r="0.5cm" stroke="blue" stroke-width="3" /><circle class="class1 class2" cx="43.12132034355964cm" cy="61.40559159102154cm" fill="blue" r="0.5cm" stroke="blue" stroke-width="3" /><circle class="class1 class2" cx="43.12132034355964cm" cy="67.40559159102153cm" fill="blue" r="0.5cm" stroke="blue" stroke-width="3" /><circle class="class1 class2" cx="37.464466094067255cm" cy="73.06244584051392cm" fill="blue" r="0.5cm" stroke="blue" stroke-width="3" /><circle class="class1 class2" cx="37.464466094067255cm" cy="80.06244584051392cm" fill="blue" r="0.5cm" stroke="blue" stroke-width="3" /><circle class="class1 class2" cx="38.87867965644035cm" cy="81.47665940288701cm" fill="blue" r="0.5cm" stroke="blue" stroke-width="3" /><circle class="class1 class2" cx="38.87867965644035cm" cy="89.47665940288701cm" fill="blue" r="0.5cm" stroke="blue" stroke-width="3" /><circle class="class1 class2" cx="42.414213562373085cm" cy="93.01219330881975cm" fill="blue" r="0.5cm" stroke="blue" stroke-width="3" /><circle class="class1 class2" cx="44cm" cy="0cm" fill="blue" r="0.5cm" stroke="blue" stroke-width="3" /><circle class="class1 class2" cx="40.46446609406726cm" cy="3.5355339059327378cm" fill="blue" r="0.5cm" stroke="blue" stroke-width="3" /><circle class="class1 class2" cx="40.46446609406726cm" cy="9.535533905932738cm" fill="blue" r="0.5cm" stroke="blue" stroke-width="3" /><circle class="class1 class2" cx="41.878679656440355cm" cy="10.94974746830583cm" fill="blue" r="0.5cm" stroke="blue" stroke-width="3" /><circle class="class1 class2" cx="41.878679656440355cm" cy="17.94974746830583cm" fill="blue" r="0.5cm" stroke="blue" stroke-width="3" /><circle class="class1 class2" cx="48.94974746830583cm" cy="25.020815280171306cm" fill="blue" r="0.5cm" stroke="blue" stroke-width="3" /><circle class="class1 class2" cx="48.94974746830583cm" cy="31.020815280171306cm" fill="blue" r="0.5cm" stroke="blue" stroke-width="3" /><circle class="class1 class2" cx="51.071067811865476cm" cy="33.14213562373095cm" fill="blue" r="0.5cm" stroke="blue" stroke-width="3" /><circle class="class1 class2" cx="51.071067811865476cm" cy="37.14213562373095cm" fill="blue" r="0.5cm" stroke="blue" stroke-width="3" /><circle class="class1 class2" cx="54.60660171779821cm" cy="40.67766952966369cm" fill="blue" r="0.5cm" stroke="blue" stroke-width="3" /><circle class="class1 class2" cx="54.60660171779821cm" cy="46.67766952966369cm" fill="blue" r="0.5cm" stroke="blue" stroke-width="3" /><circle class="class1 class2" cx="48.242640687119284cm" cy="53.04163056034262cm" fill="blue" r="0.5cm" stroke="blue" stroke-width="3" /><circle class="class1 class2" cx="48.242640687119284cm" cy="56.04163056034262cm" fill="blue" r="0.5cm" stroke="blue" stroke-width="3" /><circle class="class1 class2" cx="44.0cm" cy="60.2842712474619cm" fill="blue" r="0.5cm" stroke="blue" stroke-width="3" /><circle class="class1 class2" cx="44.0cm" cy="67.2842712474619cm" fill="blue" r="0.5cm" stroke="blue" stroke-width="3" /><circle class="class1 class2" cx="45.41421356237309cm" cy="68.698484809835cm" fill="blue" r="0.5cm" stroke="blue" stroke-width="3" /><circle class="class1 class2" cx="45.41421356237309cm" cy="74.698484809835cm" fill="blue" r="0.5cm" stroke="blue" stroke-width="3" /><circle class="class1 class2" cx="49.656854249492376cm" cy="78.94112549695427cm" fill="blue" r="0.5cm" stroke="blue" stroke-width="3" /><circle class="class1 class2" cx="49.656854249492376cm" cy="81.94112549695427cm" fill="blue" r="0.5cm" stroke="blue" stroke-width="3" /><circle class="class1 class2" cx="53.89949493661166cm" cy="86.18376618407356cm" fill="blue" r="0.5cm" stroke="blue" stroke-width="3" /><circle class="class1 class2" cx="53.89949493661166cm" cy="92.18376618407356cm" fill="blue" r="0.5cm" stroke="blue" stroke-width="3" /><circle class="class1 class2" cx="51.778174593052015cm" cy="94.30508652763321cm" fill="blue" r="0.5cm" stroke="blue" stroke-width="3" /></svg>