<?xml version="1.0" encoding="utf-8" ?>
<svg baseProfile="full" height="200" version="1.1" width="200" xmlns="http://www.w3.org/2000/svg" xmlns:ev="http://www.w3.org/2001/xml-events" xmlns:xlink="http://www.w3.org/1999/xlink"><defs /><circle cx="0.0" cy="0.0" fill="black" r="3" /><circle cx="40.0" cy="0.0" fill="black" r="3" /><circle cx="80.0" cy="0.0" fill="black" r="3" /><circle cx="120.0" cy="0.0" fill="black" r="3" /><circle cx="160.0" cy="0.0" fill="black" r="3" /><circle cx="0.0" cy="40.0" fill="black" r="3" /><circle cx="40.0" cy="40.0" fill="black" r="3" /><circle cx="80.0" cy="40.0" fill="black" r="3" /><circle cx="120.0" cy="40.0" fill="black" r="3" /><circle cx="160.0" cy="40.0" fill="black" r="3" /><circle cx="0.0" cy="80.0" fill="black" r="3" /><circle cx="40.0" cy="80.0" fill="black" r="3" /><circle cx="80.0" cy="80.0" fill="black" r="3" /><circle cx="120.0" cy="80.0" fill="black" r="3" /><circle cx="160.0" cy="80.0" fill="black" r="3" /><circle cx="0.0" cy="120.0" fill="black" r="3" /><circle cx="40.0" cy="120.0" fill="black" r="3" /><circle cx="80.0" cy="120.0" fill="black" r="3" /><circle cx="120.0" cy="120.0" fill="black" r="3" /><circle cx="160.0" cy="120.0" fill="black" r="3" /><circle cx="0.0" cy="160.0" fill="black" r="3" /><circle cx="40.0" cy="160.0" fill="black" r="3" /><circle cx="80.0" cy="160.0" fill="black" r="3" /><circle cx="120.0" cy="160.0" fill="black" r="3" /><circle cx="160.0" cy="160.0" fill="black" r="3" /><line stroke="red" stroke-width="2" x1="160.0" x2="160.0" y1="0.0" y2="40.0" /></svg>